<svg xmlns="http://www.w3.org/2000/svg" xmlns:xlink="http://www.w3.org/1999/xlink" width="129" zoomAndPan="magnify" viewBox="0 0 96.75 95.999999" height="128" preserveAspectRatio="xMidYMid meet" version="1.0"><defs><clipPath id="b84012a401"><path d="M 0 0.125 L 96.46875 0.125 L 96.46875 95.476562 L 0 95.476562 Z M 0 0.125 " clip-rule="nonzero"/></clipPath><clipPath id="da7f288185"><path d="M 7.480469 0.125 L 88.710938 0.125 C 90.695312 0.125 92.597656 0.910156 94 2.316406 C 95.402344 3.71875 96.191406 5.621094 96.191406 7.605469 L 96.191406 87.996094 C 96.191406 89.980469 95.402344 91.882812 94 93.285156 C 92.597656 94.6875 90.695312 95.476562 88.710938 95.476562 L 7.480469 95.476562 C 5.496094 95.476562 3.59375 94.6875 2.191406 93.285156 C 0.789062 91.882812 0 89.980469 0 87.996094 L 0 7.605469 C 0 5.621094 0.789062 3.71875 2.191406 2.316406 C 3.59375 0.910156 5.496094 0.125 7.480469 0.125 Z M 7.480469 0.125 " clip-rule="nonzero"/></clipPath><clipPath id="b7b3e6fb6b"><path d="M 3.753906 35.648438 L 92.773438 35.648438 L 92.773438 59.589844 L 3.753906 59.589844 Z M 3.753906 35.648438 " clip-rule="nonzero"/></clipPath></defs><g clip-path="url(#b84012a401)"><g clip-path="url(#da7f288185)"><path fill="#ffffff" d="M 0 0.125 L 96.097656 0.125 L 96.097656 95.476562 L 0 95.476562 Z M 0 0.125 " fill-opacity="1" fill-rule="nonzero"/></g></g><g clip-path="url(#b7b3e6fb6b)"><path fill="#002be7" d="M 17.789062 35.660156 C 15.359375 35.660156 12.890625 36.71875 9.730469 39.101562 L 9.730469 36.265625 L 3.753906 36.265625 L 3.753906 58.972656 L 10.117188 58.972656 L 10.117188 44.855469 C 12.890625 42.699219 14.164062 42.015625 15.203125 42.015625 C 16.4375 42.015625 17.246094 42.773438 17.246094 44.667969 L 17.246094 58.972656 L 23.609375 58.972656 L 23.609375 44.816406 C 26.382812 42.699219 27.617188 42.015625 28.695312 42.015625 C 29.929688 42.015625 30.738281 42.773438 30.738281 44.667969 L 30.738281 58.972656 L 37.101562 58.972656 L 37.101562 42.472656 C 37.101562 37.363281 34.132812 35.660156 31.277344 35.660156 C 28.851562 35.660156 26.382812 36.644531 23.144531 39.066406 C 22.105469 36.527344 19.832031 35.660156 17.789062 35.660156 Z M 50.015625 35.660156 C 43.695312 35.660156 38.453125 40.996094 38.453125 47.617188 C 38.453125 54.242188 43.695312 59.578125 50.015625 59.578125 C 53.140625 59.578125 55.839844 58.445312 57.921875 55.984375 L 57.921875 58.972656 L 63.976562 58.972656 L 63.976562 36.265625 L 57.921875 36.265625 L 57.921875 39.253906 C 55.839844 36.792969 53.140625 35.660156 50.015625 35.660156 Z M 65.09375 36.265625 C 67.714844 40.277344 70.683594 43.871094 74.152344 47.46875 C 70.683594 51.214844 67.714844 55.113281 65.09375 58.972656 L 72.765625 58.972656 C 74.574219 56.097656 76.617188 53.484375 78.972656 51.023438 C 81.285156 53.484375 83.210938 56.097656 85.023438 58.972656 L 92.773438 58.972656 C 90.113281 55 87.222656 51.214844 83.75 47.46875 C 87.183594 43.871094 90.113281 40.164062 92.773438 36.265625 L 85.179688 36.265625 C 83.289062 39.140625 81.246094 41.5625 78.972656 43.949219 C 76.660156 41.5625 74.617188 39.140625 72.765625 36.265625 Z M 50.980469 40.921875 C 54.757812 40.921875 57.804688 43.910156 57.804688 47.617188 C 57.804688 51.328125 54.757812 54.320312 50.980469 54.320312 C 47.203125 54.320312 44.15625 51.328125 44.15625 47.617188 C 44.15625 43.910156 47.203125 40.921875 50.980469 40.921875 Z M 50.980469 42.433594 C 48.089844 42.433594 45.738281 44.742188 45.738281 47.617188 C 45.738281 50.496094 48.089844 52.804688 50.980469 52.804688 C 53.871094 52.804688 56.222656 50.496094 56.222656 47.617188 C 56.222656 44.742188 53.871094 42.433594 50.980469 42.433594 Z M 50.980469 42.433594 " fill-opacity="1" fill-rule="nonzero"/></g></svg>