<svg xmlns="http://www.w3.org/2000/svg" xmlns:xlink="http://www.w3.org/1999/xlink" width="242" zoomAndPan="magnify" viewBox="0 0 181.5 181.499992" height="242" preserveAspectRatio="xMidYMid meet" version="1.0"><defs><clipPath id="67fb2c48ce"><path d="M 0 0 L 180.925781 0 L 180.925781 180.925781 L 0 180.925781 Z M 0 0 " clip-rule="nonzero"/></clipPath><clipPath id="50920088ca"><path d="M 11.34375 80 L 31 80 L 31 108.210938 L 11.34375 108.210938 Z M 11.34375 80 " clip-rule="nonzero"/></clipPath><clipPath id="71a050ba55"><path d="M 20.011719 108.054688 C 18.632812 108.089844 17.28125 107.902344 15.960938 107.496094 C 14.640625 107.085938 13.417969 106.476562 12.292969 105.664062 C 11.523438 105.027344 11.375 104.535156 11.796875 103.757812 C 12.09375 103.203125 12.359375 102.628906 12.632812 102.085938 C 13.121094 101.105469 13.585938 100.933594 14.546875 101.507812 C 16.359375 102.660156 18.335938 103.210938 20.476562 103.160156 C 23.871094 103.054688 25.152344 100.921875 25.089844 98.015625 C 24.460938 98.664062 23.730469 99.148438 22.890625 99.472656 C 22.050781 99.792969 21.183594 99.921875 20.289062 99.859375 C 18.34375 99.832031 16.582031 99.242188 15 98.097656 C 14.316406 97.605469 13.710938 97.023438 13.191406 96.355469 C 12.671875 95.6875 12.257812 94.960938 11.945312 94.171875 C 11.632812 93.382812 11.4375 92.566406 11.359375 91.71875 C 11.277344 90.875 11.320312 90.035156 11.480469 89.199219 C 11.578125 88.277344 11.808594 87.386719 12.171875 86.535156 C 12.539062 85.683594 13.023438 84.902344 13.621094 84.199219 C 14.222656 83.496094 14.914062 82.898438 15.695312 82.40625 C 16.476562 81.914062 17.3125 81.546875 18.203125 81.3125 C 18.839844 81.109375 19.488281 80.996094 20.152344 80.976562 C 20.816406 80.957031 21.472656 81.027344 22.117188 81.195312 C 22.761719 81.363281 23.371094 81.617188 23.945312 81.957031 C 24.519531 82.296875 25.03125 82.710938 25.488281 83.199219 C 25.488281 82.359375 25.554688 81.824219 25.902344 81.546875 C 26.445312 81.3125 27.007812 81.226562 27.59375 81.292969 C 30.300781 81.292969 30.238281 81.183594 30.214844 83.070312 C 30.214844 86.992188 30.214844 92.664062 30.214844 96.53125 C 30.214844 101.636719 28.621094 108.054688 20.011719 108.054688 Z M 25.300781 90.605469 C 25.324219 90.296875 25.316406 89.988281 25.273438 89.683594 C 25.234375 89.375 25.164062 89.078125 25.0625 88.785156 C 24.964844 88.492188 24.832031 88.210938 24.675781 87.949219 C 24.519531 87.683594 24.335938 87.433594 24.125 87.207031 C 23.917969 86.980469 23.6875 86.777344 23.4375 86.597656 C 23.1875 86.417969 22.921875 86.265625 22.640625 86.140625 C 22.359375 86.015625 22.070312 85.921875 21.769531 85.855469 C 21.46875 85.792969 21.164062 85.757812 20.859375 85.757812 C 20.542969 85.742188 20.234375 85.761719 19.921875 85.8125 C 19.613281 85.863281 19.3125 85.949219 19.019531 86.0625 C 18.726562 86.179688 18.449219 86.328125 18.1875 86.503906 C 17.925781 86.679688 17.6875 86.878906 17.464844 87.105469 C 17.246094 87.335938 17.054688 87.582031 16.886719 87.851562 C 16.722656 88.121094 16.585938 88.402344 16.476562 88.699219 C 16.371094 89 16.296875 89.304688 16.253906 89.621094 C 16.210938 89.933594 16.203125 90.25 16.226562 90.5625 C 16.226562 93.6875 18.183594 95.445312 20.835938 95.464844 C 21.144531 95.46875 21.449219 95.4375 21.753906 95.375 C 22.054688 95.3125 22.347656 95.21875 22.628906 95.09375 C 22.914062 94.96875 23.179688 94.816406 23.429688 94.636719 C 23.679688 94.457031 23.910156 94.25 24.121094 94.023438 C 24.328125 93.792969 24.511719 93.546875 24.671875 93.28125 C 24.828125 93.011719 24.957031 92.730469 25.054688 92.4375 C 25.15625 92.144531 25.222656 91.84375 25.261719 91.535156 C 25.300781 91.226562 25.304688 90.917969 25.277344 90.605469 Z M 25.300781 90.605469 " clip-rule="nonzero"/></clipPath><clipPath id="86972fa2e3"><path d="M 151 81 L 169.90625 81 L 169.90625 108 L 151 108 Z M 151 81 " clip-rule="nonzero"/></clipPath><clipPath id="ad3226f5b9"><path d="M 151.507812 106.722656 C 150.863281 106.378906 151.054688 105.65625 151.359375 105.113281 C 151.46875 104.898438 151.59375 104.683594 151.722656 104.472656 C 152.585938 102.777344 152.585938 102.757812 154.375 103.183594 C 154.621094 103.269531 154.875 103.308594 155.136719 103.300781 C 155.398438 103.296875 155.648438 103.242188 155.894531 103.144531 C 156.136719 103.046875 156.355469 102.910156 156.546875 102.734375 C 156.742188 102.554688 156.898438 102.351562 157.019531 102.117188 C 157.589844 101.207031 158.085938 100.253906 158.5 99.261719 C 158.5 99.261719 153.65625 88.132812 151.445312 83.019531 C 150.820312 81.578125 150.886719 81.496094 152.417969 81.496094 C 153.402344 81.496094 154.375 81.496094 155.359375 81.496094 C 155.660156 81.453125 155.9375 81.519531 156.191406 81.695312 C 156.441406 81.871094 156.601562 82.109375 156.667969 82.410156 C 157.96875 85.757812 160.792969 93.070312 160.792969 93.070312 C 161.332031 91.480469 161.945312 89.871094 162.453125 88.421875 C 163.140625 86.429688 163.878906 84.457031 164.566406 82.441406 C 164.597656 82.277344 164.65625 82.128906 164.746094 81.988281 C 164.835938 81.847656 164.949219 81.730469 165.082031 81.636719 C 165.21875 81.539062 165.367188 81.476562 165.53125 81.441406 C 165.691406 81.402344 165.851562 81.402344 166.015625 81.429688 C 166.914062 81.496094 167.824219 81.429688 168.742188 81.429688 C 169.992188 81.429688 170.203125 81.773438 169.738281 82.933594 C 168.679688 85.757812 167.507812 88.59375 166.375 91.460938 C 164.980469 94.953125 163.203125 99.21875 161.828125 102.691406 C 160.960938 104.824219 158.890625 107.9375 155.484375 107.9375 C 154.015625 108.015625 152.6875 107.609375 151.507812 106.722656 Z M 151.507812 106.722656 " clip-rule="nonzero"/></clipPath><linearGradient x1="131.919993" gradientTransform="matrix(1.057299, 0, 0, -1.065747, 11.343143, 110.504237)" y1="14.84" x2="149.969997" gradientUnits="userSpaceOnUse" y2="14.84" id="218d0cac9e"><stop stop-opacity="1" stop-color="rgb(99.598694%, 52.565002%, 2.55127%)" offset="0"/><stop stop-opacity="1" stop-color="rgb(99.598694%, 52.696228%, 2.511597%)" offset="0.03125"/><stop stop-opacity="1" stop-color="rgb(99.598694%, 52.957153%, 2.432251%)" offset="0.0625"/><stop stop-opacity="1" stop-color="rgb(99.598694%, 53.219604%, 2.352905%)" offset="0.09375"/><stop stop-opacity="1" stop-color="rgb(99.598694%, 53.48053%, 2.27356%)" offset="0.125"/><stop stop-opacity="1" stop-color="rgb(99.598694%, 53.742981%, 2.192688%)" offset="0.15625"/><stop stop-opacity="1" stop-color="rgb(99.598694%, 54.005432%, 2.113342%)" offset="0.1875"/><stop stop-opacity="1" stop-color="rgb(99.598694%, 54.266357%, 2.033997%)" offset="0.21875"/><stop stop-opacity="1" stop-color="rgb(99.598694%, 54.528809%, 1.954651%)" offset="0.25"/><stop stop-opacity="1" stop-color="rgb(99.598694%, 54.789734%, 1.875305%)" offset="0.28125"/><stop stop-opacity="1" stop-color="rgb(99.598694%, 55.052185%, 1.795959%)" offset="0.3125"/><stop stop-opacity="1" stop-color="rgb(99.598694%, 55.31311%, 1.716614%)" offset="0.34375"/><stop stop-opacity="1" stop-color="rgb(99.598694%, 55.570984%, 1.637268%)" offset="0.375"/><stop stop-opacity="1" stop-color="rgb(99.598694%, 55.699158%, 1.599121%)" offset="0.5"/><stop stop-opacity="1" stop-color="rgb(99.598694%, 55.699158%, 1.599121%)" offset="1"/></linearGradient><clipPath id="5383ab31fb"><path d="M 60 73.058594 L 80 73.058594 L 80 101 L 60 101 Z M 60 73.058594 " clip-rule="nonzero"/></clipPath><clipPath id="a3d4087096"><path d="M 65.742188 82.953125 C 66.394531 82.339844 67.136719 81.863281 67.964844 81.527344 C 68.796875 81.191406 69.65625 81.015625 70.550781 81.003906 C 71.917969 81.007812 73.214844 81.316406 74.4375 81.929688 C 75.660156 82.542969 76.683594 83.402344 77.507812 84.5 C 80.121094 87.695312 80.140625 93.984375 77.253906 97.140625 C 76.90625 97.578125 76.515625 97.976562 76.082031 98.335938 C 75.652344 98.695312 75.1875 99.007812 74.695312 99.269531 C 74.199219 99.535156 73.683594 99.742188 73.148438 99.902344 C 72.613281 100.058594 72.066406 100.160156 71.507812 100.203125 C 70.949219 100.25 70.394531 100.238281 69.839844 100.167969 C 69.285156 100.097656 68.742188 99.972656 68.214844 99.792969 C 67.683594 99.609375 67.179688 99.378906 66.695312 99.09375 C 66.214844 98.808594 65.765625 98.476562 65.351562 98.097656 C 65.222656 97.992188 65.351562 99.164062 65.097656 99.496094 C 64.789062 100.09375 61.226562 100.050781 60.867188 99.496094 C 60.722656 99.214844 60.660156 98.914062 60.675781 98.601562 C 60.675781 90.777344 60.675781 82.71875 60.675781 74.898438 C 60.675781 73.949219 61.089844 73.566406 62 73.585938 C 62.90625 73.609375 63.53125 73.652344 64.3125 73.585938 C 65.371094 73.585938 65.65625 74.035156 65.65625 74.984375 C 65.679688 77.273438 65.71875 82.871094 65.742188 82.953125 Z M 70.074219 85.777344 C 67.550781 85.777344 65.613281 87.664062 65.550781 90.605469 C 65.527344 90.917969 65.535156 91.230469 65.578125 91.542969 C 65.617188 91.851562 65.6875 92.15625 65.789062 92.449219 C 65.890625 92.746094 66.023438 93.03125 66.183594 93.296875 C 66.34375 93.566406 66.527344 93.816406 66.738281 94.046875 C 66.949219 94.277344 67.179688 94.484375 67.433594 94.667969 C 67.683594 94.847656 67.953125 95.003906 68.238281 95.128906 C 68.523438 95.257812 68.816406 95.351562 69.121094 95.417969 C 69.425781 95.484375 69.730469 95.519531 70.042969 95.519531 C 70.351562 95.523438 70.660156 95.492188 70.964844 95.433594 C 71.269531 95.371094 71.566406 95.277344 71.851562 95.15625 C 72.136719 95.03125 72.40625 94.882812 72.664062 94.703125 C 72.917969 94.523438 73.152344 94.320312 73.367188 94.09375 C 73.582031 93.867188 73.769531 93.621094 73.933594 93.351562 C 74.09375 93.085938 74.230469 92.804688 74.335938 92.511719 C 74.441406 92.21875 74.519531 91.914062 74.5625 91.605469 C 74.609375 91.292969 74.621094 90.984375 74.601562 90.671875 C 74.625 90.355469 74.617188 90.042969 74.578125 89.734375 C 74.535156 89.421875 74.464844 89.117188 74.363281 88.820312 C 74.257812 88.523438 74.128906 88.242188 73.964844 87.972656 C 73.804688 87.703125 73.617188 87.453125 73.40625 87.222656 C 73.191406 86.992188 72.957031 86.789062 72.703125 86.605469 C 72.449219 86.425781 72.175781 86.273438 71.890625 86.148438 C 71.605469 86.023438 71.308594 85.929688 71.003906 85.867188 C 70.695312 85.804688 70.386719 85.777344 70.074219 85.777344 Z M 70.074219 85.777344 " clip-rule="nonzero"/></clipPath><linearGradient x1="46.64401" gradientTransform="matrix(1.057299, 0, 0, -1.065747, 11.343143, 110.504237)" y1="22.16" x2="65.069998" gradientUnits="userSpaceOnUse" y2="22.16" id="d0ad7409ae"><stop stop-opacity="1" stop-color="rgb(99.598694%, 12.954712%, 14.584351%)" offset="0"/><stop stop-opacity="1" stop-color="rgb(99.598694%, 13.088989%, 14.543152%)" offset="0.03125"/><stop stop-opacity="1" stop-color="rgb(99.598694%, 13.35907%, 14.46228%)" offset="0.0625"/><stop stop-opacity="1" stop-color="rgb(99.598694%, 13.62915%, 14.379883%)" offset="0.09375"/><stop stop-opacity="1" stop-color="rgb(99.598694%, 13.897705%, 14.297485%)" offset="0.125"/><stop stop-opacity="1" stop-color="rgb(99.598694%, 14.167786%, 14.216614%)" offset="0.15625"/><stop stop-opacity="1" stop-color="rgb(99.598694%, 14.437866%, 14.134216%)" offset="0.1875"/><stop stop-opacity="1" stop-color="rgb(99.598694%, 14.707947%, 14.051819%)" offset="0.21875"/><stop stop-opacity="1" stop-color="rgb(99.598694%, 14.978027%, 13.969421%)" offset="0.25"/><stop stop-opacity="1" stop-color="rgb(99.598694%, 15.246582%, 13.88855%)" offset="0.28125"/><stop stop-opacity="1" stop-color="rgb(99.598694%, 15.516663%, 13.806152%)" offset="0.3125"/><stop stop-opacity="1" stop-color="rgb(99.598694%, 15.786743%, 13.723755%)" offset="0.34375"/><stop stop-opacity="1" stop-color="rgb(99.598694%, 16.056824%, 13.642883%)" offset="0.375"/><stop stop-opacity="1" stop-color="rgb(99.598694%, 16.326904%, 13.560486%)" offset="0.40625"/><stop stop-opacity="1" stop-color="rgb(99.598694%, 16.595459%, 13.478088%)" offset="0.4375"/><stop stop-opacity="1" stop-color="rgb(99.598694%, 16.86554%, 13.395691%)" offset="0.46875"/><stop stop-opacity="1" stop-color="rgb(99.598694%, 17.13562%, 13.314819%)" offset="0.5"/><stop stop-opacity="1" stop-color="rgb(99.598694%, 17.405701%, 13.232422%)" offset="0.53125"/><stop stop-opacity="1" stop-color="rgb(99.598694%, 17.675781%, 13.150024%)" offset="0.5625"/><stop stop-opacity="1" stop-color="rgb(99.598694%, 17.944336%, 13.069153%)" offset="0.59375"/><stop stop-opacity="1" stop-color="rgb(99.598694%, 18.214417%, 12.986755%)" offset="0.625"/><stop stop-opacity="1" stop-color="rgb(99.598694%, 18.484497%, 12.904358%)" offset="0.65625"/><stop stop-opacity="1" stop-color="rgb(99.598694%, 18.754578%, 12.82196%)" offset="0.6875"/><stop stop-opacity="1" stop-color="rgb(99.598694%, 19.024658%, 12.741089%)" offset="0.71875"/><stop stop-opacity="1" stop-color="rgb(99.598694%, 19.293213%, 12.658691%)" offset="0.75"/><stop stop-opacity="1" stop-color="rgb(99.598694%, 19.563293%, 12.576294%)" offset="0.78125"/><stop stop-opacity="1" stop-color="rgb(99.598694%, 19.833374%, 12.495422%)" offset="0.8125"/><stop stop-opacity="1" stop-color="rgb(99.598694%, 20.103455%, 12.413025%)" offset="0.84375"/><stop stop-opacity="1" stop-color="rgb(99.598694%, 20.373535%, 12.330627%)" offset="0.875"/><stop stop-opacity="1" stop-color="rgb(99.598694%, 20.64209%, 12.24823%)" offset="0.90625"/><stop stop-opacity="1" stop-color="rgb(99.598694%, 20.91217%, 12.167358%)" offset="0.9375"/><stop stop-opacity="1" stop-color="rgb(99.598694%, 21.182251%, 12.084961%)" offset="0.96875"/><stop stop-opacity="1" stop-color="rgb(99.598694%, 21.452332%, 12.002563%)" offset="1"/></linearGradient><clipPath id="c5b00c5894"><path d="M 102 81 L 122 81 L 122 108 L 102 108 Z M 102 81 " clip-rule="nonzero"/></clipPath><clipPath id="26a6064ab7"><path d="M 107.492188 98.257812 C 107.492188 100.890625 107.492188 103.308594 107.492188 105.71875 C 107.492188 107.5 107.492188 107.5 105.664062 107.5 C 105.03125 107.5 104.394531 107.5 103.773438 107.5 C 102.949219 107.5 102.714844 107.113281 102.714844 106.347656 L 102.714844 82.570312 C 102.714844 81.792969 103.011719 81.386719 103.835938 81.503906 C 104.355469 81.503906 105.304688 81.503906 105.832031 81.503906 C 107.28125 81.503906 107.199219 81.929688 107.199219 83.328125 C 112.261719 78.480469 119.738281 82.125 121.082031 88.335938 C 121.214844 88.863281 121.308594 89.402344 121.355469 89.945312 C 121.398438 90.488281 121.402344 91.035156 121.355469 91.578125 C 121.3125 92.121094 121.222656 92.65625 121.085938 93.1875 C 120.953125 93.714844 120.777344 94.230469 120.554688 94.726562 C 120.335938 95.226562 120.074219 95.703125 119.777344 96.160156 C 119.476562 96.613281 119.140625 97.039062 118.769531 97.4375 C 118.398438 97.835938 117.996094 98.199219 117.5625 98.527344 C 117.132812 98.855469 116.675781 99.148438 116.195312 99.398438 C 115.605469 99.71875 114.984375 99.953125 114.332031 100.101562 C 113.675781 100.25 113.015625 100.304688 112.347656 100.265625 C 111.679688 100.230469 111.027344 100.101562 110.394531 99.886719 C 109.757812 99.667969 109.167969 99.367188 108.613281 98.984375 C 108.265625 98.792969 108 98.578125 107.492188 98.257812 Z M 107.410156 90.585938 C 107.390625 90.898438 107.402344 91.210938 107.445312 91.523438 C 107.488281 91.835938 107.5625 92.140625 107.667969 92.4375 C 107.773438 92.734375 107.90625 93.015625 108.066406 93.285156 C 108.230469 93.554688 108.417969 93.804688 108.628906 94.035156 C 108.839844 94.265625 109.074219 94.472656 109.328125 94.65625 C 109.582031 94.839844 109.851562 94.996094 110.136719 95.125 C 110.417969 95.253906 110.714844 95.351562 111.019531 95.421875 C 111.324219 95.488281 111.632812 95.523438 111.945312 95.53125 C 112.257812 95.535156 112.570312 95.507812 112.878906 95.445312 C 113.1875 95.386719 113.484375 95.292969 113.773438 95.167969 C 114.0625 95.046875 114.335938 94.894531 114.59375 94.714844 C 114.851562 94.53125 115.085938 94.328125 115.300781 94.09375 C 115.515625 93.863281 115.707031 93.613281 115.871094 93.34375 C 116.03125 93.074219 116.167969 92.789062 116.269531 92.492188 C 116.375 92.191406 116.445312 91.886719 116.488281 91.570312 C 116.527344 91.257812 116.535156 90.945312 116.511719 90.628906 C 116.511719 87.878906 115.023438 85.886719 112.15625 85.777344 C 111.839844 85.761719 111.523438 85.777344 111.210938 85.828125 C 110.894531 85.875 110.589844 85.957031 110.292969 86.074219 C 109.996094 86.1875 109.714844 86.332031 109.449219 86.507812 C 109.183594 86.679688 108.9375 86.882812 108.714844 87.109375 C 108.488281 87.335938 108.289062 87.582031 108.117188 87.851562 C 107.945312 88.121094 107.804688 88.40625 107.691406 88.707031 C 107.578125 89.007812 107.5 89.3125 107.453125 89.628906 C 107.40625 89.949219 107.390625 90.265625 107.410156 90.585938 Z M 107.410156 90.585938 " clip-rule="nonzero"/></clipPath><linearGradient x1="86.419995" gradientTransform="matrix(1.057299, 0, 0, -1.065747, 11.343143, 110.504237)" y1="15.24" x2="104.093067" gradientUnits="userSpaceOnUse" y2="15.24" id="8531351f29"><stop stop-opacity="1" stop-color="rgb(99.598694%, 31.454468%, 8.964539%)" offset="0"/><stop stop-opacity="1" stop-color="rgb(99.598694%, 31.582642%, 8.924866%)" offset="0.03125"/><stop stop-opacity="1" stop-color="rgb(99.598694%, 31.838989%, 8.847046%)" offset="0.0625"/><stop stop-opacity="1" stop-color="rgb(99.598694%, 32.096863%, 8.769226%)" offset="0.09375"/><stop stop-opacity="1" stop-color="rgb(99.598694%, 32.354736%, 8.68988%)" offset="0.125"/><stop stop-opacity="1" stop-color="rgb(99.598694%, 32.61261%, 8.612061%)" offset="0.15625"/><stop stop-opacity="1" stop-color="rgb(99.598694%, 32.870483%, 8.534241%)" offset="0.1875"/><stop stop-opacity="1" stop-color="rgb(99.598694%, 33.126831%, 8.456421%)" offset="0.21875"/><stop stop-opacity="1" stop-color="rgb(99.598694%, 33.384705%, 8.377075%)" offset="0.25"/><stop stop-opacity="1" stop-color="rgb(99.598694%, 33.642578%, 8.299255%)" offset="0.28125"/><stop stop-opacity="1" stop-color="rgb(99.598694%, 33.900452%, 8.221436%)" offset="0.3125"/><stop stop-opacity="1" stop-color="rgb(99.598694%, 34.158325%, 8.14209%)" offset="0.34375"/><stop stop-opacity="1" stop-color="rgb(99.598694%, 34.414673%, 8.06427%)" offset="0.375"/><stop stop-opacity="1" stop-color="rgb(99.598694%, 34.672546%, 7.98645%)" offset="0.40625"/><stop stop-opacity="1" stop-color="rgb(99.598694%, 34.93042%, 7.90863%)" offset="0.4375"/><stop stop-opacity="1" stop-color="rgb(99.598694%, 35.188293%, 7.829285%)" offset="0.46875"/><stop stop-opacity="1" stop-color="rgb(99.598694%, 35.446167%, 7.751465%)" offset="0.5"/><stop stop-opacity="1" stop-color="rgb(99.598694%, 35.702515%, 7.673645%)" offset="0.53125"/><stop stop-opacity="1" stop-color="rgb(99.598694%, 35.960388%, 7.594299%)" offset="0.5625"/><stop stop-opacity="1" stop-color="rgb(99.598694%, 36.218262%, 7.516479%)" offset="0.59375"/><stop stop-opacity="1" stop-color="rgb(99.598694%, 36.476135%, 7.43866%)" offset="0.625"/><stop stop-opacity="1" stop-color="rgb(99.598694%, 36.734009%, 7.36084%)" offset="0.65625"/><stop stop-opacity="1" stop-color="rgb(99.598694%, 36.990356%, 7.281494%)" offset="0.6875"/><stop stop-opacity="1" stop-color="rgb(99.598694%, 37.24823%, 7.203674%)" offset="0.71875"/><stop stop-opacity="1" stop-color="rgb(99.598694%, 37.506104%, 7.125854%)" offset="0.75"/><stop stop-opacity="1" stop-color="rgb(99.598694%, 37.763977%, 7.048035%)" offset="0.78125"/><stop stop-opacity="1" stop-color="rgb(99.598694%, 38.021851%, 6.968689%)" offset="0.8125"/><stop stop-opacity="1" stop-color="rgb(99.598694%, 38.278198%, 6.890869%)" offset="0.84375"/><stop stop-opacity="1" stop-color="rgb(99.598694%, 38.536072%, 6.813049%)" offset="0.875"/><stop stop-opacity="1" stop-color="rgb(99.598694%, 38.793945%, 6.733704%)" offset="0.90625"/><stop stop-opacity="1" stop-color="rgb(99.598694%, 39.051819%, 6.655884%)" offset="0.9375"/><stop stop-opacity="1" stop-color="rgb(99.598694%, 39.309692%, 6.578064%)" offset="0.96875"/><stop stop-opacity="1" stop-color="rgb(99.598694%, 39.56604%, 6.500244%)" offset="1"/></linearGradient><clipPath id="e6b85928e2"><path d="M 130 81 L 150 81 L 150 101 L 130 101 Z M 130 81 " clip-rule="nonzero"/></clipPath><clipPath id="a115d1878e"><path d="M 144.699219 83.167969 C 144.933594 81.453125 144.699219 81.429688 146.570312 81.453125 C 147.144531 81.453125 147.628906 81.453125 148.253906 81.453125 C 149.195312 81.34375 149.488281 81.878906 149.488281 82.699219 L 149.488281 98.601562 C 149.488281 99.496094 149.109375 99.984375 148.148438 99.898438 C 147.660156 99.898438 147.152344 99.898438 146.675781 99.898438 C 144.996094 99.898438 144.65625 99.898438 144.65625 98.035156 C 144.035156 98.730469 143.300781 99.269531 142.457031 99.65625 C 141.609375 100.042969 140.722656 100.238281 139.792969 100.25 C 138.773438 100.316406 137.785156 100.175781 136.820312 99.832031 C 135.859375 99.492188 135 98.972656 134.242188 98.28125 C 133.953125 98.035156 133.675781 97.773438 133.410156 97.492188 C 133.148438 97.214844 132.90625 96.921875 132.675781 96.617188 C 132.449219 96.308594 132.238281 95.988281 132.046875 95.65625 C 131.855469 95.328125 131.683594 94.984375 131.53125 94.632812 C 131.378906 94.28125 131.246094 93.921875 131.132812 93.554688 C 131.023438 93.1875 130.933594 92.816406 130.863281 92.4375 C 130.796875 92.0625 130.75 91.679688 130.726562 91.296875 C 130.699219 90.914062 130.699219 90.53125 130.71875 90.148438 C 130.738281 89.765625 130.777344 89.382812 130.839844 89.007812 C 130.90625 88.628906 130.988281 88.253906 131.097656 87.886719 C 131.203125 87.515625 131.328125 87.15625 131.476562 86.800781 C 131.625 86.449219 131.792969 86.105469 131.980469 85.769531 C 132.164062 85.4375 132.371094 85.113281 132.597656 84.804688 C 132.820312 84.496094 133.0625 84.199219 133.320312 83.917969 C 133.578125 83.632812 133.851562 83.367188 134.140625 83.117188 C 134.429688 82.867188 134.730469 82.636719 135.046875 82.421875 C 135.695312 81.960938 136.402344 81.609375 137.164062 81.378906 C 137.921875 81.144531 138.703125 81.035156 139.496094 81.054688 C 140.292969 81.074219 141.0625 81.21875 141.8125 81.488281 C 142.5625 81.757812 143.25 82.140625 143.875 82.636719 Z M 135.648438 90.628906 C 135.648438 93.515625 137.542969 95.660156 140.132812 95.59375 C 140.445312 95.59375 140.757812 95.5625 141.0625 95.496094 C 141.371094 95.429688 141.667969 95.335938 141.957031 95.207031 C 142.242188 95.082031 142.515625 94.925781 142.769531 94.742188 C 143.027344 94.558594 143.261719 94.351562 143.472656 94.121094 C 143.6875 93.886719 143.875 93.636719 144.035156 93.367188 C 144.199219 93.09375 144.332031 92.808594 144.433594 92.511719 C 144.539062 92.210938 144.613281 91.90625 144.652344 91.59375 C 144.695312 91.28125 144.703125 90.964844 144.679688 90.648438 C 144.695312 90.335938 144.675781 90.023438 144.628906 89.714844 C 144.582031 89.402344 144.5 89.101562 144.394531 88.804688 C 144.285156 88.511719 144.148438 88.230469 143.984375 87.964844 C 143.820312 87.699219 143.628906 87.449219 143.414062 87.222656 C 143.199219 86.992188 142.964844 86.789062 142.710938 86.609375 C 142.457031 86.425781 142.1875 86.273438 141.902344 86.148438 C 141.613281 86.023438 141.320312 85.925781 141.015625 85.859375 C 140.710938 85.796875 140.402344 85.761719 140.089844 85.757812 C 139.785156 85.765625 139.484375 85.804688 139.191406 85.871094 C 138.894531 85.941406 138.605469 86.039062 138.328125 86.164062 C 138.050781 86.292969 137.789062 86.445312 137.542969 86.625 C 137.296875 86.804688 137.070312 87.003906 136.863281 87.230469 C 136.65625 87.453125 136.472656 87.699219 136.3125 87.960938 C 136.15625 88.222656 136.023438 88.496094 135.921875 88.785156 C 135.816406 89.074219 135.742188 89.367188 135.695312 89.671875 C 135.648438 89.972656 135.636719 90.277344 135.648438 90.585938 Z M 135.648438 90.628906 " clip-rule="nonzero"/></clipPath><linearGradient x1="112.886852" gradientTransform="matrix(1.057299, 0, 0, -1.065747, 11.343143, 110.504237)" y1="18.629999" x2="130.659983" gradientUnits="userSpaceOnUse" y2="18.629999" id="7fa6d72796"><stop stop-opacity="1" stop-color="rgb(99.598694%, 43.77594%, 5.221558%)" offset="0"/><stop stop-opacity="1" stop-color="rgb(99.598694%, 43.90564%, 5.181885%)" offset="0.03125"/><stop stop-opacity="1" stop-color="rgb(99.598694%, 44.165039%, 5.102539%)" offset="0.0625"/><stop stop-opacity="1" stop-color="rgb(99.598694%, 44.422913%, 5.024719%)" offset="0.09375"/><stop stop-opacity="1" stop-color="rgb(99.598694%, 44.682312%, 4.945374%)" offset="0.125"/><stop stop-opacity="1" stop-color="rgb(99.598694%, 44.941711%, 4.867554%)" offset="0.15625"/><stop stop-opacity="1" stop-color="rgb(99.598694%, 45.199585%, 4.788208%)" offset="0.1875"/><stop stop-opacity="1" stop-color="rgb(99.598694%, 45.458984%, 4.710388%)" offset="0.21875"/><stop stop-opacity="1" stop-color="rgb(99.598694%, 45.718384%, 4.631042%)" offset="0.25"/><stop stop-opacity="1" stop-color="rgb(99.598694%, 45.977783%, 4.551697%)" offset="0.28125"/><stop stop-opacity="1" stop-color="rgb(99.598694%, 46.235657%, 4.473877%)" offset="0.3125"/><stop stop-opacity="1" stop-color="rgb(99.598694%, 46.495056%, 4.394531%)" offset="0.34375"/><stop stop-opacity="1" stop-color="rgb(99.598694%, 46.754456%, 4.316711%)" offset="0.375"/><stop stop-opacity="1" stop-color="rgb(99.598694%, 47.013855%, 4.237366%)" offset="0.40625"/><stop stop-opacity="1" stop-color="rgb(99.598694%, 47.271729%, 4.159546%)" offset="0.4375"/><stop stop-opacity="1" stop-color="rgb(99.598694%, 47.531128%, 4.0802%)" offset="0.46875"/><stop stop-opacity="1" stop-color="rgb(99.598694%, 47.790527%, 4.000854%)" offset="0.5"/><stop stop-opacity="1" stop-color="rgb(99.598694%, 48.049927%, 3.923035%)" offset="0.53125"/><stop stop-opacity="1" stop-color="rgb(99.598694%, 48.3078%, 3.843689%)" offset="0.5625"/><stop stop-opacity="1" stop-color="rgb(99.598694%, 48.5672%, 3.765869%)" offset="0.59375"/><stop stop-opacity="1" stop-color="rgb(99.598694%, 48.826599%, 3.686523%)" offset="0.625"/><stop stop-opacity="1" stop-color="rgb(99.598694%, 49.084473%, 3.608704%)" offset="0.65625"/><stop stop-opacity="1" stop-color="rgb(99.598694%, 49.343872%, 3.529358%)" offset="0.6875"/><stop stop-opacity="1" stop-color="rgb(99.598694%, 49.603271%, 3.451538%)" offset="0.71875"/><stop stop-opacity="1" stop-color="rgb(99.598694%, 49.862671%, 3.372192%)" offset="0.75"/><stop stop-opacity="1" stop-color="rgb(99.598694%, 50.120544%, 3.292847%)" offset="0.78125"/><stop stop-opacity="1" stop-color="rgb(99.598694%, 50.379944%, 3.215027%)" offset="0.8125"/><stop stop-opacity="1" stop-color="rgb(99.598694%, 50.639343%, 3.135681%)" offset="0.84375"/><stop stop-opacity="1" stop-color="rgb(99.598694%, 50.898743%, 3.057861%)" offset="0.875"/><stop stop-opacity="1" stop-color="rgb(99.598694%, 51.156616%, 2.978516%)" offset="0.90625"/><stop stop-opacity="1" stop-color="rgb(99.598694%, 51.416016%, 2.900696%)" offset="0.9375"/><stop stop-opacity="1" stop-color="rgb(99.598694%, 51.675415%, 2.82135%)" offset="0.96875"/><stop stop-opacity="1" stop-color="rgb(99.598694%, 51.934814%, 2.742004%)" offset="1"/></linearGradient><clipPath id="c078c5c176"><path d="M 39 81 L 59 81 L 59 101 L 39 101 Z M 39 81 " clip-rule="nonzero"/></clipPath><clipPath id="6396042042"><path d="M 58.574219 90.585938 C 58.585938 91.222656 58.539062 91.855469 58.425781 92.484375 C 58.316406 93.113281 58.144531 93.726562 57.910156 94.320312 C 57.675781 94.914062 57.386719 95.476562 57.039062 96.011719 C 56.695312 96.546875 56.300781 97.042969 55.855469 97.496094 C 55.410156 97.949219 54.925781 98.355469 54.398438 98.710938 C 53.875 99.070312 53.316406 99.367188 52.730469 99.613281 C 52.148438 99.855469 51.542969 100.039062 50.921875 100.160156 C 50.300781 100.28125 49.671875 100.339844 49.039062 100.335938 C 48.40625 100.328125 47.777344 100.257812 47.160156 100.125 C 46.539062 99.996094 45.9375 99.800781 45.359375 99.546875 C 44.777344 99.292969 44.226562 98.980469 43.707031 98.617188 C 43.1875 98.25 42.710938 97.835938 42.273438 97.375 C 41.835938 96.910156 41.449219 96.410156 41.113281 95.867188 C 40.777344 95.328125 40.5 94.757812 40.273438 94.160156 C 40.050781 93.5625 39.890625 92.949219 39.789062 92.316406 C 39.691406 91.6875 39.652344 91.054688 39.679688 90.414062 C 39.6875 89.792969 39.753906 89.175781 39.882812 88.566406 C 40.011719 87.957031 40.199219 87.367188 40.441406 86.792969 C 40.683594 86.222656 40.980469 85.679688 41.328125 85.164062 C 41.679688 84.652344 42.074219 84.175781 42.515625 83.742188 C 42.957031 83.304688 43.4375 82.917969 43.953125 82.578125 C 44.46875 82.234375 45.015625 81.949219 45.585938 81.714844 C 46.160156 81.484375 46.75 81.308594 47.359375 81.191406 C 47.964844 81.078125 48.578125 81.019531 49.195312 81.027344 C 49.816406 81.023438 50.429688 81.082031 51.039062 81.199219 C 51.652344 81.320312 52.242188 81.5 52.816406 81.742188 C 53.390625 81.980469 53.933594 82.273438 54.449219 82.625 C 54.964844 82.972656 55.441406 83.371094 55.878906 83.816406 C 56.316406 84.261719 56.707031 84.746094 57.046875 85.269531 C 57.386719 85.792969 57.671875 86.34375 57.902344 86.925781 C 58.136719 87.507812 58.308594 88.105469 58.417969 88.722656 C 58.53125 89.339844 58.582031 89.960938 58.574219 90.585938 Z M 53.636719 90.796875 C 53.65625 90.492188 53.644531 90.183594 53.605469 89.878906 C 53.5625 89.574219 53.492188 89.273438 53.394531 88.984375 C 53.292969 88.691406 53.164062 88.414062 53.007812 88.148438 C 52.855469 87.882812 52.675781 87.632812 52.46875 87.40625 C 52.265625 87.175781 52.039062 86.96875 51.796875 86.785156 C 51.550781 86.601562 51.289062 86.441406 51.011719 86.3125 C 50.734375 86.179688 50.449219 86.078125 50.152344 86.003906 C 49.855469 85.929688 49.550781 85.886719 49.246094 85.875 C 48.941406 85.859375 48.636719 85.878906 48.335938 85.925781 C 48.03125 85.976562 47.738281 86.054688 47.453125 86.160156 C 47.164062 86.269531 46.890625 86.40625 46.632812 86.566406 C 46.371094 86.730469 46.132812 86.917969 45.910156 87.128906 C 45.6875 87.339844 45.484375 87.574219 45.308594 87.824219 C 45.132812 88.078125 44.984375 88.34375 44.859375 88.625 C 44.734375 88.90625 44.640625 89.199219 44.574219 89.5 C 44.507812 89.800781 44.472656 90.105469 44.46875 90.414062 C 44.445312 90.738281 44.453125 91.058594 44.492188 91.378906 C 44.535156 91.699219 44.605469 92.011719 44.707031 92.316406 C 44.808594 92.621094 44.941406 92.914062 45.101562 93.195312 C 45.261719 93.472656 45.449219 93.734375 45.660156 93.976562 C 45.875 94.214844 46.109375 94.433594 46.363281 94.628906 C 46.621094 94.824219 46.890625 94.988281 47.179688 95.128906 C 47.46875 95.265625 47.769531 95.375 48.078125 95.453125 C 48.390625 95.53125 48.707031 95.578125 49.023438 95.59375 C 49.332031 95.589844 49.636719 95.558594 49.941406 95.496094 C 50.242188 95.429688 50.535156 95.335938 50.816406 95.214844 C 51.101562 95.09375 51.367188 94.945312 51.621094 94.765625 C 51.875 94.589844 52.109375 94.390625 52.324219 94.167969 C 52.539062 93.945312 52.730469 93.703125 52.898438 93.441406 C 53.0625 93.179688 53.203125 92.90625 53.316406 92.617188 C 53.429688 92.328125 53.511719 92.027344 53.566406 91.722656 C 53.617188 91.417969 53.640625 91.109375 53.636719 90.796875 Z M 53.636719 90.796875 " clip-rule="nonzero"/></clipPath><linearGradient x1="26.775332" gradientTransform="matrix(1.057299, 0, 0, -1.065747, 11.343143, 110.504237)" y1="18.639999" x2="44.683939" gradientUnits="userSpaceOnUse" y2="18.639999" id="448848bb67"><stop stop-opacity="1" stop-color="rgb(99.598694%, 3.813171%, 17.36145%)" offset="0"/><stop stop-opacity="1" stop-color="rgb(99.598694%, 3.942871%, 17.321777%)" offset="0.03125"/><stop stop-opacity="1" stop-color="rgb(99.598694%, 4.202271%, 17.243958%)" offset="0.0625"/><stop stop-opacity="1" stop-color="rgb(99.598694%, 4.463196%, 17.164612%)" offset="0.09375"/><stop stop-opacity="1" stop-color="rgb(99.598694%, 4.722595%, 17.085266%)" offset="0.125"/><stop stop-opacity="1" stop-color="rgb(99.598694%, 4.981995%, 17.007446%)" offset="0.15625"/><stop stop-opacity="1" stop-color="rgb(99.598694%, 5.241394%, 16.928101%)" offset="0.1875"/><stop stop-opacity="1" stop-color="rgb(99.598694%, 5.500793%, 16.848755%)" offset="0.21875"/><stop stop-opacity="1" stop-color="rgb(99.598694%, 5.761719%, 16.769409%)" offset="0.25"/><stop stop-opacity="1" stop-color="rgb(99.598694%, 6.021118%, 16.691589%)" offset="0.28125"/><stop stop-opacity="1" stop-color="rgb(99.598694%, 6.280518%, 16.612244%)" offset="0.3125"/><stop stop-opacity="1" stop-color="rgb(99.598694%, 6.539917%, 16.532898%)" offset="0.34375"/><stop stop-opacity="1" stop-color="rgb(99.598694%, 6.799316%, 16.455078%)" offset="0.375"/><stop stop-opacity="1" stop-color="rgb(99.598694%, 7.060242%, 16.375732%)" offset="0.40625"/><stop stop-opacity="1" stop-color="rgb(99.598694%, 7.319641%, 16.296387%)" offset="0.4375"/><stop stop-opacity="1" stop-color="rgb(99.598694%, 7.579041%, 16.217041%)" offset="0.46875"/><stop stop-opacity="1" stop-color="rgb(99.598694%, 7.83844%, 16.139221%)" offset="0.5"/><stop stop-opacity="1" stop-color="rgb(99.598694%, 8.097839%, 16.059875%)" offset="0.53125"/><stop stop-opacity="1" stop-color="rgb(99.598694%, 8.358765%, 15.98053%)" offset="0.5625"/><stop stop-opacity="1" stop-color="rgb(99.598694%, 8.618164%, 15.90271%)" offset="0.59375"/><stop stop-opacity="1" stop-color="rgb(99.598694%, 8.877563%, 15.823364%)" offset="0.625"/><stop stop-opacity="1" stop-color="rgb(99.598694%, 9.136963%, 15.744019%)" offset="0.65625"/><stop stop-opacity="1" stop-color="rgb(99.598694%, 9.396362%, 15.666199%)" offset="0.6875"/><stop stop-opacity="1" stop-color="rgb(99.598694%, 9.657288%, 15.586853%)" offset="0.71875"/><stop stop-opacity="1" stop-color="rgb(99.598694%, 9.916687%, 15.507507%)" offset="0.75"/><stop stop-opacity="1" stop-color="rgb(99.598694%, 10.176086%, 15.428162%)" offset="0.78125"/><stop stop-opacity="1" stop-color="rgb(99.598694%, 10.435486%, 15.350342%)" offset="0.8125"/><stop stop-opacity="1" stop-color="rgb(99.598694%, 10.694885%, 15.270996%)" offset="0.84375"/><stop stop-opacity="1" stop-color="rgb(99.598694%, 10.955811%, 15.19165%)" offset="0.875"/><stop stop-opacity="1" stop-color="rgb(99.598694%, 11.21521%, 15.113831%)" offset="0.90625"/><stop stop-opacity="1" stop-color="rgb(99.598694%, 11.474609%, 15.034485%)" offset="0.9375"/><stop stop-opacity="1" stop-color="rgb(99.598694%, 11.734009%, 14.955139%)" offset="0.96875"/><stop stop-opacity="1" stop-color="rgb(99.598694%, 11.994934%, 14.875793%)" offset="1"/></linearGradient><clipPath id="4c5ceb9ede"><path d="M 81 81 L 101 81 L 101 101 L 81 101 Z M 81 81 " clip-rule="nonzero"/></clipPath><clipPath id="acf679a584"><path d="M 81.472656 90.5625 C 81.484375 89.941406 81.550781 89.324219 81.679688 88.714844 C 81.8125 88.105469 81.996094 87.515625 82.242188 86.945312 C 82.488281 86.371094 82.785156 85.832031 83.136719 85.316406 C 83.488281 84.804688 83.882812 84.332031 84.328125 83.898438 C 84.769531 83.464844 85.25 83.078125 85.769531 82.738281 C 86.289062 82.402344 86.835938 82.117188 87.410156 81.886719 C 87.984375 81.65625 88.574219 81.484375 89.183594 81.371094 C 89.789062 81.261719 90.402344 81.207031 91.019531 81.21875 C 91.640625 81.226562 92.25 81.296875 92.855469 81.425781 C 93.457031 81.558594 94.042969 81.746094 94.613281 81.992188 C 95.179688 82.238281 95.71875 82.539062 96.226562 82.894531 C 96.734375 83.246094 97.203125 83.648438 97.636719 84.09375 C 98.066406 84.539062 98.449219 85.023438 98.785156 85.546875 C 99.121094 86.070312 99.402344 86.621094 99.628906 87.199219 C 99.859375 87.78125 100.027344 88.375 100.140625 88.988281 C 100.25 89.601562 100.304688 90.21875 100.292969 90.839844 C 100.285156 91.464844 100.214844 92.078125 100.085938 92.6875 C 99.957031 93.296875 99.769531 93.886719 99.523438 94.460938 C 99.28125 95.03125 98.980469 95.574219 98.632812 96.085938 C 98.28125 96.601562 97.882812 97.074219 97.441406 97.507812 C 96.996094 97.941406 96.515625 98.328125 95.996094 98.667969 C 95.480469 99.003906 94.933594 99.289062 94.359375 99.519531 C 93.785156 99.75 93.191406 99.921875 92.585938 100.03125 C 91.976562 100.144531 91.363281 100.195312 90.746094 100.1875 C 90.128906 100.179688 89.515625 100.109375 88.914062 99.980469 C 88.308594 99.847656 87.722656 99.660156 87.15625 99.414062 C 86.589844 99.167969 86.050781 98.867188 85.542969 98.511719 C 85.03125 98.160156 84.5625 97.757812 84.132812 97.3125 C 83.703125 96.863281 83.320312 96.378906 82.984375 95.855469 C 82.648438 95.335938 82.367188 94.785156 82.136719 94.203125 C 81.910156 93.625 81.738281 93.03125 81.628906 92.417969 C 81.515625 91.804688 81.464844 91.1875 81.472656 90.5625 Z M 95.441406 90.5625 C 95.457031 90.246094 95.441406 89.925781 95.394531 89.609375 C 95.34375 89.296875 95.265625 88.988281 95.152344 88.6875 C 95.039062 88.390625 94.898438 88.105469 94.726562 87.835938 C 94.554688 87.566406 94.355469 87.320312 94.132812 87.09375 C 93.910156 86.863281 93.667969 86.664062 93.402344 86.488281 C 93.136719 86.3125 92.855469 86.164062 92.5625 86.046875 C 92.265625 85.933594 91.960938 85.847656 91.648438 85.792969 C 91.335938 85.742188 91.019531 85.722656 90.703125 85.734375 C 90.382812 85.75 90.066406 85.796875 89.757812 85.875 C 89.445312 85.953125 89.144531 86.0625 88.855469 86.203125 C 88.570312 86.34375 88.296875 86.515625 88.042969 86.710938 C 87.789062 86.910156 87.558594 87.132812 87.347656 87.375 C 87.140625 87.621094 86.957031 87.886719 86.804688 88.167969 C 86.648438 88.453125 86.523438 88.75 86.429688 89.058594 C 86.335938 89.367188 86.273438 89.683594 86.242188 90.003906 C 86.214844 90.328125 86.21875 90.648438 86.253906 90.96875 C 86.261719 91.277344 86.300781 91.582031 86.367188 91.882812 C 86.433594 92.183594 86.53125 92.472656 86.652344 92.753906 C 86.777344 93.035156 86.925781 93.304688 87.101562 93.554688 C 87.277344 93.808594 87.472656 94.042969 87.691406 94.257812 C 87.910156 94.46875 88.148438 94.660156 88.40625 94.828125 C 88.664062 94.996094 88.933594 95.136719 89.214844 95.25 C 89.5 95.367188 89.792969 95.453125 90.089844 95.511719 C 90.390625 95.566406 90.695312 95.597656 91 95.59375 C 91.3125 95.582031 91.617188 95.539062 91.917969 95.464844 C 92.222656 95.390625 92.511719 95.285156 92.792969 95.152344 C 93.074219 95.019531 93.339844 94.859375 93.589844 94.671875 C 93.839844 94.484375 94.066406 94.273438 94.277344 94.039062 C 94.484375 93.804688 94.664062 93.554688 94.820312 93.285156 C 94.976562 93.011719 95.105469 92.730469 95.207031 92.433594 C 95.308594 92.136719 95.375 91.832031 95.417969 91.519531 C 95.457031 91.210938 95.464844 90.898438 95.441406 90.585938 Z M 95.441406 90.5625 " clip-rule="nonzero"/></clipPath><linearGradient x1="66.321462" gradientTransform="matrix(1.057299, 0, 0, -1.065747, 11.343143, 110.504237)" y1="18.66" x2="84.138539" gradientUnits="userSpaceOnUse" y2="18.66" id="a50b7b5a90"><stop stop-opacity="1" stop-color="rgb(99.598694%, 22.164917%, 11.787415%)" offset="0"/><stop stop-opacity="1" stop-color="rgb(99.598694%, 22.294617%, 11.747742%)" offset="0.03125"/><stop stop-opacity="1" stop-color="rgb(99.598694%, 22.55249%, 11.668396%)" offset="0.0625"/><stop stop-opacity="1" stop-color="rgb(99.598694%, 22.810364%, 11.590576%)" offset="0.09375"/><stop stop-opacity="1" stop-color="rgb(99.598694%, 23.069763%, 11.51123%)" offset="0.125"/><stop stop-opacity="1" stop-color="rgb(99.598694%, 23.327637%, 11.433411%)" offset="0.15625"/><stop stop-opacity="1" stop-color="rgb(99.598694%, 23.58551%, 11.354065%)" offset="0.1875"/><stop stop-opacity="1" stop-color="rgb(99.598694%, 23.84491%, 11.276245%)" offset="0.21875"/><stop stop-opacity="1" stop-color="rgb(99.598694%, 24.102783%, 11.196899%)" offset="0.25"/><stop stop-opacity="1" stop-color="rgb(99.598694%, 24.360657%, 11.11908%)" offset="0.28125"/><stop stop-opacity="1" stop-color="rgb(99.598694%, 24.620056%, 11.04126%)" offset="0.3125"/><stop stop-opacity="1" stop-color="rgb(99.598694%, 24.87793%, 10.961914%)" offset="0.34375"/><stop stop-opacity="1" stop-color="rgb(99.598694%, 25.135803%, 10.884094%)" offset="0.375"/><stop stop-opacity="1" stop-color="rgb(99.598694%, 25.395203%, 10.804749%)" offset="0.40625"/><stop stop-opacity="1" stop-color="rgb(99.598694%, 25.653076%, 10.726929%)" offset="0.4375"/><stop stop-opacity="1" stop-color="rgb(99.598694%, 25.91095%, 10.647583%)" offset="0.46875"/><stop stop-opacity="1" stop-color="rgb(99.598694%, 26.170349%, 10.569763%)" offset="0.5"/><stop stop-opacity="1" stop-color="rgb(99.598694%, 26.428223%, 10.490417%)" offset="0.53125"/><stop stop-opacity="1" stop-color="rgb(99.598694%, 26.686096%, 10.412598%)" offset="0.5625"/><stop stop-opacity="1" stop-color="rgb(99.598694%, 26.945496%, 10.334778%)" offset="0.59375"/><stop stop-opacity="1" stop-color="rgb(99.598694%, 27.203369%, 10.255432%)" offset="0.625"/><stop stop-opacity="1" stop-color="rgb(99.598694%, 27.461243%, 10.177612%)" offset="0.65625"/><stop stop-opacity="1" stop-color="rgb(99.598694%, 27.720642%, 10.098267%)" offset="0.6875"/><stop stop-opacity="1" stop-color="rgb(99.598694%, 27.978516%, 10.020447%)" offset="0.71875"/><stop stop-opacity="1" stop-color="rgb(99.598694%, 28.236389%, 9.941101%)" offset="0.75"/><stop stop-opacity="1" stop-color="rgb(99.598694%, 28.495789%, 9.863281%)" offset="0.78125"/><stop stop-opacity="1" stop-color="rgb(99.598694%, 28.753662%, 9.783936%)" offset="0.8125"/><stop stop-opacity="1" stop-color="rgb(99.598694%, 29.011536%, 9.706116%)" offset="0.84375"/><stop stop-opacity="1" stop-color="rgb(99.598694%, 29.270935%, 9.628296%)" offset="0.875"/><stop stop-opacity="1" stop-color="rgb(99.598694%, 29.528809%, 9.54895%)" offset="0.90625"/><stop stop-opacity="1" stop-color="rgb(99.598694%, 29.786682%, 9.47113%)" offset="0.9375"/><stop stop-opacity="1" stop-color="rgb(99.598694%, 30.046082%, 9.391785%)" offset="0.96875"/><stop stop-opacity="1" stop-color="rgb(99.598694%, 30.303955%, 9.313965%)" offset="1"/></linearGradient><clipPath id="ddf8d8df64"><path d="M 123 73.058594 L 129 73.058594 L 129 100 L 123 100 Z M 123 73.058594 " clip-rule="nonzero"/></clipPath><clipPath id="3aa9e8901a"><path d="M 128.480469 86.855469 C 128.480469 90.777344 128.480469 94.71875 128.480469 98.640625 C 128.480469 99.558594 128.144531 99.921875 127.265625 99.878906 C 126.492188 99.835938 125.722656 99.835938 124.949219 99.878906 C 123.894531 99.941406 123.566406 99.453125 123.566406 98.492188 L 123.566406 75.34375 C 123.566406 74.011719 123.746094 73.820312 125.054688 73.800781 C 125.785156 73.800781 126.523438 73.800781 127.265625 73.800781 C 128.164062 73.800781 128.480469 74.164062 128.480469 75.046875 C 128.460938 78.988281 128.480469 82.933594 128.480469 86.855469 Z M 128.480469 86.855469 " clip-rule="nonzero"/></clipPath><linearGradient x1="106.139995" gradientTransform="matrix(1.057299, 0, 0, -1.065747, 11.343143, 110.504237)" y1="22.209999" x2="110.789997" gradientUnits="userSpaceOnUse" y2="22.209999" id="7eb94b4793"><stop stop-opacity="1" stop-color="rgb(99.598694%, 40.567017%, 6.196594%)" offset="0"/><stop stop-opacity="1" stop-color="rgb(99.598694%, 40.708923%, 6.152344%)" offset="0.125"/><stop stop-opacity="1" stop-color="rgb(99.598694%, 40.992737%, 6.066895%)" offset="0.25"/><stop stop-opacity="1" stop-color="rgb(99.598694%, 41.27655%, 5.979919%)" offset="0.375"/><stop stop-opacity="1" stop-color="rgb(99.598694%, 41.560364%, 5.89447%)" offset="0.5"/><stop stop-opacity="1" stop-color="rgb(99.598694%, 41.844177%, 5.807495%)" offset="0.625"/><stop stop-opacity="1" stop-color="rgb(99.598694%, 42.129517%, 5.722046%)" offset="0.75"/><stop stop-opacity="1" stop-color="rgb(99.598694%, 42.41333%, 5.635071%)" offset="0.875"/><stop stop-opacity="1" stop-color="rgb(99.598694%, 42.697144%, 5.548096%)" offset="1"/></linearGradient><clipPath id="a249a722ef"><path d="M 32 73.058594 L 38 73.058594 L 38 101 L 32 101 Z M 32 73.058594 " clip-rule="nonzero"/></clipPath><clipPath id="900b5fa2d3"><path d="M 32.59375 86.835938 L 32.59375 74.726562 C 32.59375 73.289062 33.164062 72.796875 34.929688 73.585938 C 36.972656 74.480469 37.5 74.652344 37.5 76.367188 C 37.5 82.910156 37.5 90.222656 37.4375 96.949219 C 37.4375 98.257812 37.5 98.835938 35.894531 99.558594 C 35.566406 99.707031 34.910156 100.050781 34.425781 100.230469 C 33.460938 100.636719 32.574219 100.230469 32.59375 98.8125 C 32.59375 95.976562 32.59375 93.132812 32.59375 90.285156 C 32.574219 89.199219 32.574219 88.007812 32.59375 86.835938 Z M 32.59375 86.835938 " clip-rule="nonzero"/></clipPath><linearGradient x1="20.079999" gradientTransform="matrix(1.057299, 0, 0, -1.065747, 11.343143, 110.504237)" y1="22.25" x2="24.740001" gradientUnits="userSpaceOnUse" y2="22.25" id="52db1e4ed1"><stop stop-opacity="1" stop-color="rgb(99.598694%, 0.636292%, 18.327332%)" offset="0"/><stop stop-opacity="1" stop-color="rgb(99.598694%, 0.775146%, 18.284607%)" offset="0.125"/><stop stop-opacity="1" stop-color="rgb(99.598694%, 1.054382%, 18.199158%)" offset="0.25"/><stop stop-opacity="1" stop-color="rgb(99.598694%, 1.335144%, 18.115234%)" offset="0.375"/><stop stop-opacity="1" stop-color="rgb(99.598694%, 1.61438%, 18.029785%)" offset="0.5"/><stop stop-opacity="1" stop-color="rgb(99.598694%, 1.893616%, 17.944336%)" offset="0.625"/><stop stop-opacity="1" stop-color="rgb(99.598694%, 2.172852%, 17.860413%)" offset="0.75"/><stop stop-opacity="1" stop-color="rgb(99.598694%, 2.452087%, 17.774963%)" offset="0.875"/><stop stop-opacity="1" stop-color="rgb(99.598694%, 2.731323%, 17.689514%)" offset="1"/></linearGradient></defs><path fill="#ffffff" d="M 0 0 L 181 0 L 181 181 L 0 181 Z M 0 0 " fill-opacity="1" fill-rule="nonzero"/><g clip-path="url(#67fb2c48ce)"><path fill="#202020" d="M 0 0 L 180.925781 0 L 180.925781 180.925781 L 0 180.925781 Z M 0 0 " fill-opacity="1" fill-rule="nonzero"/></g><g clip-path="url(#50920088ca)"><g clip-path="url(#71a050ba55)"><path fill="#fe012f" d="M 11.34375 108.089844 L 11.34375 80.957031 L 30.300781 80.957031 L 30.300781 108.089844 Z M 11.34375 108.089844 " fill-opacity="1" fill-rule="nonzero"/></g></g><g clip-path="url(#86972fa2e3)"><g clip-path="url(#ad3226f5b9)"><path fill="url(#218d0cac9e)" d="M 150.820312 108.015625 L 150.820312 81.402344 L 169.90625 81.402344 L 169.90625 108.015625 Z M 150.820312 108.015625 " fill-rule="nonzero"/></g></g><g clip-path="url(#5383ab31fb)"><g clip-path="url(#a3d4087096)"><path fill="url(#d0ad7409ae)" d="M 60.660156 100.25 L 60.660156 73.566406 L 80.140625 73.566406 L 80.140625 100.25 Z M 60.660156 100.25 " fill-rule="nonzero"/></g></g><g clip-path="url(#c5b00c5894)"><g clip-path="url(#26a6064ab7)"><path fill="url(#8531351f29)" d="M 102.714844 107.5 L 102.714844 78.480469 L 121.402344 78.480469 L 121.402344 107.5 Z M 102.714844 107.5 " fill-rule="nonzero"/></g></g><g clip-path="url(#e6b85928e2)"><g clip-path="url(#a115d1878e)"><path fill="url(#7fa6d72796)" d="M 130.699219 100.316406 L 130.699219 81.035156 L 149.488281 81.035156 L 149.488281 100.316406 Z M 130.699219 100.316406 " fill-rule="nonzero"/></g></g><g clip-path="url(#c078c5c176)"><g clip-path="url(#6396042042)"><path fill="url(#448848bb67)" d="M 39.652344 100.339844 L 39.652344 81.019531 L 58.585938 81.019531 L 58.585938 100.339844 Z M 39.652344 100.339844 " fill-rule="nonzero"/></g></g><g clip-path="url(#4c5ceb9ede)"><g clip-path="url(#acf679a584)"><path fill="url(#a50b7b5a90)" d="M 81.464844 100.195312 L 81.464844 81.207031 L 100.304688 81.207031 L 100.304688 100.195312 Z M 81.464844 100.195312 " fill-rule="nonzero"/></g></g><g clip-path="url(#ddf8d8df64)"><g clip-path="url(#3aa9e8901a)"><path fill="url(#7eb94b4793)" d="M 123.566406 99.941406 L 123.566406 73.800781 L 128.480469 73.800781 L 128.480469 99.941406 Z M 123.566406 99.941406 " fill-rule="nonzero"/></g></g><g clip-path="url(#a249a722ef)"><g clip-path="url(#900b5fa2d3)"><path fill="url(#52db1e4ed1)" d="M 32.574219 100.636719 L 32.574219 73.058594 L 37.5 73.058594 L 37.5 100.636719 Z M 32.574219 100.636719 " fill-rule="nonzero"/></g></g></svg>