<svg xmlns="http://www.w3.org/2000/svg" xmlns:xlink="http://www.w3.org/1999/xlink" width="127" zoomAndPan="magnify" viewBox="0 0 95.25 95.999999" height="128" preserveAspectRatio="xMidYMid meet" version="1.0"><defs><g/><clipPath id="07409479ee"><path d="M 0 0.375 L 94.507812 0.375 L 94.507812 95.625 L 0 95.625 Z M 0 0.375 " clip-rule="nonzero"/></clipPath><clipPath id="7cebe39b0c"><path d="M 0 0.375 L 94.269531 0.375 L 94.269531 94.644531 L 0 94.644531 Z M 0 0.375 " clip-rule="nonzero"/></clipPath><clipPath id="8f40e07603"><path d="M 7.441406 0.375 L 86.828125 0.375 C 88.800781 0.375 90.695312 1.160156 92.089844 2.554688 C 93.484375 3.949219 94.269531 5.84375 94.269531 7.816406 L 94.269531 87.203125 C 94.269531 89.175781 93.484375 91.070312 92.089844 92.464844 C 90.695312 93.859375 88.800781 94.644531 86.828125 94.644531 L 7.441406 94.644531 C 5.46875 94.644531 3.574219 93.859375 2.179688 92.464844 C 0.785156 91.070312 0 89.175781 0 87.203125 L 0 7.816406 C 0 5.84375 0.785156 3.949219 2.179688 2.554688 C 3.574219 1.160156 5.46875 0.375 7.441406 0.375 Z M 7.441406 0.375 " clip-rule="nonzero"/></clipPath><clipPath id="34af896e7e"><path d="M 9 5.503906 L 86.363281 5.503906 L 86.363281 89.59375 L 9 89.59375 Z M 9 5.503906 " clip-rule="nonzero"/></clipPath><clipPath id="53f59c90f5"><path d="M 8.226562 9.226562 L 8.226562 85.792969 C 8.226562 87.847656 9.894531 89.515625 11.949219 89.515625 L 82.320312 89.515625 C 84.375 89.515625 86.042969 87.847656 86.042969 85.792969 L 86.042969 9.226562 C 86.042969 7.171875 84.375 5.503906 82.320312 5.503906 L 11.949219 5.503906 C 9.894531 5.503906 8.226562 7.171875 8.226562 9.226562 Z M 8.226562 9.226562 " clip-rule="nonzero"/></clipPath><clipPath id="b016ca4cb7"><path d="M 34 49 L 52 49 L 52 72 L 34 72 Z M 34 49 " clip-rule="nonzero"/></clipPath><clipPath id="1e920f215b"><path d="M 8.226562 9.226562 L 8.226562 85.792969 C 8.226562 87.847656 9.894531 89.515625 11.949219 89.515625 L 82.320312 89.515625 C 84.375 89.515625 86.042969 87.847656 86.042969 85.792969 L 86.042969 9.226562 C 86.042969 7.171875 84.375 5.503906 82.320312 5.503906 L 11.949219 5.503906 C 9.894531 5.503906 8.226562 7.171875 8.226562 9.226562 Z M 8.226562 9.226562 " clip-rule="nonzero"/></clipPath><clipPath id="2d8a6109bd"><path d="M 53 49 L 74 49 L 74 72 L 53 72 Z M 53 49 " clip-rule="nonzero"/></clipPath><clipPath id="423e03a399"><path d="M 8.226562 9.226562 L 8.226562 85.792969 C 8.226562 87.847656 9.894531 89.515625 11.949219 89.515625 L 82.320312 89.515625 C 84.375 89.515625 86.042969 87.847656 86.042969 85.792969 L 86.042969 9.226562 C 86.042969 7.171875 84.375 5.503906 82.320312 5.503906 L 11.949219 5.503906 C 9.894531 5.503906 8.226562 7.171875 8.226562 9.226562 Z M 8.226562 9.226562 " clip-rule="nonzero"/></clipPath></defs><g clip-path="url(#07409479ee)"><path fill="#ffffff" d="M 0 0.375 L 94.507812 0.375 L 94.507812 95.625 L 0 95.625 Z M 0 0.375 " fill-opacity="1" fill-rule="nonzero"/></g><g clip-path="url(#7cebe39b0c)"><g clip-path="url(#8f40e07603)"><path fill="#7ed957" d="M 0 0.375 L 94.269531 0.375 L 94.269531 94.644531 L 0 94.644531 Z M 0 0.375 " fill-opacity="1" fill-rule="nonzero"/></g></g><g clip-path="url(#34af896e7e)"><g clip-path="url(#53f59c90f5)"><path fill="#231f20" d="M 48.632812 31.636719 C 48.488281 31.179688 48.199219 30.785156 47.808594 30.472656 L 60.425781 8.949219 C 61.027344 9 61.632812 8.714844 61.957031 8.160156 C 62.410156 7.390625 62.148438 6.402344 61.375 5.953125 C 60.605469 5.503906 59.613281 5.765625 59.164062 6.535156 C 58.835938 7.089844 58.886719 7.753906 59.226562 8.253906 L 46.5625 29.855469 C 45.957031 29.691406 45.273438 29.65625 44.570312 29.785156 C 43.867188 29.917969 43.242188 30.199219 42.738281 30.574219 L 23.050781 15.058594 C 23.183594 14.46875 22.984375 13.832031 22.480469 13.433594 C 21.777344 12.878906 20.761719 13 20.207031 13.699219 C 19.652344 14.398438 19.769531 15.414062 20.472656 15.964844 C 20.976562 16.363281 21.644531 16.40625 22.1875 16.140625 L 41.804688 31.601562 C 41.554688 32.03125 41.429688 32.507812 41.460938 32.984375 L 14.441406 38.066406 C 10.632812 38.785156 8.261719 42.601562 9.308594 46.320312 L 23.214844 89.601562 L 16.019531 49.492188 C 15.511719 46.179688 17.582031 43.011719 20.828125 42.136719 L 86.34375 24.542969 L 48.632812 31.636719 " fill-opacity="1" fill-rule="nonzero"/></g></g><g clip-path="url(#b016ca4cb7)"><g clip-path="url(#1e920f215b)"><path fill="#231f20" d="M 51.558594 53.835938 L 45.28125 53.835938 L 45.28125 71.753906 L 40.308594 71.753906 L 40.308594 53.835938 L 34.058594 53.835938 L 34.058594 49.808594 L 51.558594 49.808594 L 51.558594 53.835938 " fill-opacity="1" fill-rule="nonzero"/></g></g><g clip-path="url(#2d8a6109bd)"><g clip-path="url(#423e03a399)"><path fill="#231f20" d="M 73.890625 49.808594 L 66.308594 71.753906 L 60.6875 71.753906 L 53.195312 49.808594 L 58.539062 49.808594 L 63.128906 65.082031 C 63.375 65.910156 63.523438 66.636719 63.574219 67.269531 L 63.667969 67.269531 C 63.738281 66.585938 63.898438 65.835938 64.144531 65.019531 L 68.703125 49.808594 L 73.890625 49.808594 " fill-opacity="1" fill-rule="nonzero"/></g></g><g fill="#202020" fill-opacity="1"><g transform="translate(23.023487, 85.35692)"><g><path d="M 6.9375 -3.328125 L 4.8125 -3.328125 L 4.8125 -1.15625 L 2.84375 -1.15625 L 2.84375 -3.328125 L 0.71875 -3.328125 L 0.71875 -5.203125 L 2.84375 -5.203125 L 2.84375 -7.390625 L 4.8125 -7.390625 L 4.8125 -5.203125 L 6.9375 -5.203125 Z M 6.9375 -3.328125 "/></g></g></g><g fill="#202020" fill-opacity="1"><g transform="translate(30.68313, 85.35692)"><g><path d="M 0.40625 -4.296875 C 0.40625 -5.140625 0.585938 -5.890625 0.953125 -6.546875 C 1.316406 -7.210938 1.828125 -7.734375 2.484375 -8.109375 C 3.140625 -8.484375 3.878906 -8.671875 4.703125 -8.671875 C 5.722656 -8.671875 6.59375 -8.398438 7.3125 -7.859375 C 8.039062 -7.316406 8.53125 -6.582031 8.78125 -5.65625 L 6.484375 -5.65625 C 6.304688 -6.019531 6.0625 -6.296875 5.75 -6.484375 C 5.4375 -6.671875 5.082031 -6.765625 4.6875 -6.765625 C 4.039062 -6.765625 3.519531 -6.539062 3.125 -6.09375 C 2.726562 -5.644531 2.53125 -5.046875 2.53125 -4.296875 C 2.53125 -3.546875 2.726562 -2.945312 3.125 -2.5 C 3.519531 -2.050781 4.039062 -1.828125 4.6875 -1.828125 C 5.082031 -1.828125 5.4375 -1.921875 5.75 -2.109375 C 6.0625 -2.296875 6.304688 -2.566406 6.484375 -2.921875 L 8.78125 -2.921875 C 8.53125 -1.992188 8.039062 -1.265625 7.3125 -0.734375 C 6.59375 -0.203125 5.722656 0.0625 4.703125 0.0625 C 3.878906 0.0625 3.140625 -0.117188 2.484375 -0.484375 C 1.828125 -0.859375 1.316406 -1.375 0.953125 -2.03125 C 0.585938 -2.695312 0.40625 -3.453125 0.40625 -4.296875 Z M 0.40625 -4.296875 "/></g></g></g><g fill="#202020" fill-opacity="1"><g transform="translate(39.977156, 85.35692)"><g><path d="M 6.09375 -1.515625 L 2.890625 -1.515625 L 2.375 0 L 0.1875 0 L 3.296875 -8.5625 L 5.71875 -8.5625 L 8.8125 0 L 6.609375 0 Z M 5.546875 -3.125 L 4.484375 -6.265625 L 3.4375 -3.125 Z M 5.546875 -3.125 "/></g></g></g><g fill="#202020" fill-opacity="1"><g transform="translate(48.966262, 85.35692)"><g><path d="M 8.421875 0 L 6.328125 0 L 2.84375 -5.28125 L 2.84375 0 L 0.75 0 L 0.75 -8.5625 L 2.84375 -8.5625 L 6.328125 -3.265625 L 6.328125 -8.5625 L 8.421875 -8.5625 Z M 8.421875 0 "/></g></g></g><g fill="#202020" fill-opacity="1"><g transform="translate(58.138316, 85.35692)"><g><path d="M 6.09375 -1.515625 L 2.890625 -1.515625 L 2.375 0 L 0.1875 0 L 3.296875 -8.5625 L 5.71875 -8.5625 L 8.8125 0 L 6.609375 0 Z M 5.546875 -3.125 L 4.484375 -6.265625 L 3.4375 -3.125 Z M 5.546875 -3.125 "/></g></g></g><g fill="#202020" fill-opacity="1"><g transform="translate(67.127423, 85.35692)"><g><path d="M 2.84375 -8.5625 L 2.84375 0 L 0.75 0 L 0.75 -8.5625 Z M 2.84375 -8.5625 "/></g></g></g><g fill="#202020" fill-opacity="1"><g transform="translate(70.725507, 85.35692)"><g><path d="M 3.859375 0.078125 C 3.234375 0.078125 2.671875 -0.0195312 2.171875 -0.21875 C 1.671875 -0.425781 1.269531 -0.726562 0.96875 -1.125 C 0.675781 -1.519531 0.523438 -2 0.515625 -2.5625 L 2.734375 -2.5625 C 2.765625 -2.25 2.875 -2.007812 3.0625 -1.84375 C 3.25 -1.675781 3.492188 -1.59375 3.796875 -1.59375 C 4.109375 -1.59375 4.351562 -1.660156 4.53125 -1.796875 C 4.707031 -1.941406 4.796875 -2.140625 4.796875 -2.390625 C 4.796875 -2.597656 4.722656 -2.769531 4.578125 -2.90625 C 4.441406 -3.050781 4.269531 -3.164062 4.0625 -3.25 C 3.851562 -3.34375 3.554688 -3.445312 3.171875 -3.5625 C 2.617188 -3.726562 2.164062 -3.894531 1.8125 -4.0625 C 1.46875 -4.238281 1.164062 -4.492188 0.90625 -4.828125 C 0.65625 -5.160156 0.53125 -5.597656 0.53125 -6.140625 C 0.53125 -6.929688 0.816406 -7.550781 1.390625 -8 C 1.972656 -8.457031 2.726562 -8.6875 3.65625 -8.6875 C 4.601562 -8.6875 5.363281 -8.457031 5.9375 -8 C 6.519531 -7.550781 6.832031 -6.925781 6.875 -6.125 L 4.609375 -6.125 C 4.597656 -6.40625 4.5 -6.625 4.3125 -6.78125 C 4.125 -6.9375 3.882812 -7.015625 3.59375 -7.015625 C 3.332031 -7.015625 3.125 -6.945312 2.96875 -6.8125 C 2.820312 -6.675781 2.75 -6.484375 2.75 -6.234375 C 2.75 -5.960938 2.878906 -5.75 3.140625 -5.59375 C 3.398438 -5.4375 3.804688 -5.269531 4.359375 -5.09375 C 4.910156 -4.90625 5.359375 -4.722656 5.703125 -4.546875 C 6.046875 -4.378906 6.34375 -4.128906 6.59375 -3.796875 C 6.851562 -3.472656 6.984375 -3.054688 6.984375 -2.546875 C 6.984375 -2.054688 6.859375 -1.613281 6.609375 -1.21875 C 6.359375 -0.820312 5.992188 -0.503906 5.515625 -0.265625 C 5.046875 -0.0351562 4.492188 0.078125 3.859375 0.078125 Z M 3.859375 0.078125 "/></g></g></g></svg>