<svg xmlns="http://www.w3.org/2000/svg" xmlns:xlink="http://www.w3.org/1999/xlink" width="245" zoomAndPan="magnify" viewBox="0 0 183.75 181.5" height="242" preserveAspectRatio="xMidYMid meet" version="1.0"><defs><clipPath id="bb00a9e504"><path d="M 0.128906 0 L 182.648438 0 L 182.648438 180.925781 L 0.128906 180.925781 Z M 0.128906 0 " clip-rule="nonzero"/></clipPath><clipPath id="b6f2925233"><path d="M 23 118 L 162.867188 118 L 162.867188 143 L 23 143 Z M 23 118 " clip-rule="nonzero"/></clipPath><clipPath id="26e3faeb98"><path d="M 58.617188 42.527344 L 120 42.527344 L 120 103.855469 L 58.617188 103.855469 Z M 58.617188 42.527344 " clip-rule="nonzero"/></clipPath></defs><g clip-path="url(#bb00a9e504)"><path fill="#a238ff" d="M 0.128906 0 L 182.46875 0 L 182.46875 180.925781 L 0.128906 180.925781 Z M 0.128906 0 " fill-opacity="1" fill-rule="nonzero"/></g><g clip-path="url(#b6f2925233)"><path fill="#ffffff" d="M 23.246094 118.511719 L 35.273438 118.511719 C 42.722656 118.511719 47.988281 123.46875 47.988281 130.511719 C 47.988281 137.554688 42.722656 142.507812 35.273438 142.507812 L 23.246094 142.507812 Z M 32.59375 136.027344 L 34.777344 136.027344 C 37.113281 136.027344 38.359375 134.46875 38.359375 130.511719 C 38.359375 126.554688 37.113281 124.996094 34.777344 124.996094 L 32.59375 124.996094 Z M 69.179688 142.507812 L 49.421875 142.507812 L 49.421875 118.511719 L 69.179688 118.511719 L 69.179688 124.996094 L 58.738281 124.996094 L 58.738281 127.769531 L 68.554688 127.769531 L 68.554688 133.066406 L 58.738281 133.066406 L 58.738281 136.027344 L 69.179688 136.027344 Z M 91.179688 142.507812 L 71.421875 142.507812 L 71.421875 118.511719 L 91.179688 118.511719 L 91.179688 124.996094 L 80.738281 124.996094 L 80.738281 127.769531 L 90.554688 127.769531 L 90.554688 133.066406 L 80.738281 133.066406 L 80.738281 136.027344 L 91.179688 136.027344 Z M 162.882812 142.507812 C 161.539062 138.839844 159.652344 134.925781 157.121094 130.535156 C 160.082031 129.667969 161.855469 127.800781 161.855469 124.933594 C 161.855469 120.570312 157.835938 118.511719 151.476562 118.511719 L 138.390625 118.511719 L 138.390625 142.507812 L 147.738281 142.507812 L 147.738281 132.582031 C 149.816406 136.082031 151.347656 139.382812 152.351562 142.507812 Z M 147.738281 129.234375 L 147.738281 124.996094 L 150.980469 124.996094 C 152.351562 124.996094 153.128906 125.742188 153.128906 127.113281 C 153.128906 128.484375 152.351562 129.234375 150.980469 129.234375 Z M 136.144531 142.507812 L 116.390625 142.507812 L 116.390625 118.511719 L 136.144531 118.511719 L 136.144531 124.996094 L 125.707031 124.996094 L 125.707031 127.769531 L 135.523438 127.769531 L 135.523438 133.066406 L 125.707031 133.066406 L 125.707031 136.027344 L 136.144531 136.027344 Z M 93.421875 124.996094 L 103.070312 124.996094 C 99.066406 128.269531 95.773438 131.976562 93.234375 136.027344 L 93.234375 142.507812 L 114.457031 142.507812 L 114.457031 136.027344 L 103.851562 136.027344 C 106.28125 132.488281 109.675781 128.96875 114.457031 124.996094 L 114.457031 118.511719 L 93.421875 118.511719 Z M 93.421875 124.996094 " fill-opacity="1" fill-rule="evenodd"/></g><g clip-path="url(#26e3faeb98)"><path fill="#000000" d="M 109.601562 51.910156 C 110.164062 48.652344 110.988281 46.601562 111.902344 46.597656 L 111.90625 46.597656 C 113.609375 46.605469 114.992188 53.710938 114.992188 62.484375 C 114.992188 71.257812 113.605469 78.371094 111.902344 78.371094 C 111.203125 78.371094 110.554688 77.164062 110.035156 75.140625 C 109.214844 82.546875 107.511719 87.640625 105.539062 87.640625 C 104.011719 87.640625 102.644531 84.582031 101.722656 79.757812 C 101.09375 88.933594 99.515625 95.441406 97.667969 95.441406 C 96.507812 95.441406 95.453125 92.863281 94.667969 88.660156 C 93.726562 97.332031 91.554688 103.40625 89.019531 103.40625 C 86.484375 103.40625 84.308594 97.332031 83.371094 88.660156 C 82.59375 92.863281 81.539062 95.441406 80.371094 95.441406 C 78.523438 95.441406 76.949219 88.933594 76.316406 79.757812 C 75.398438 84.582031 74.03125 87.640625 72.5 87.640625 C 70.53125 87.640625 68.824219 82.550781 68.003906 75.140625 C 67.488281 77.167969 66.839844 78.371094 66.140625 78.371094 C 64.433594 78.371094 63.050781 71.257812 63.050781 62.484375 C 63.050781 53.710938 64.433594 46.597656 66.140625 46.597656 C 67.054688 46.597656 67.875 48.652344 68.441406 51.910156 C 69.351562 46.289062 70.828125 42.636719 72.5 42.636719 C 74.484375 42.636719 76.203125 47.804688 77.019531 55.304688 C 77.8125 49.84375 79.023438 46.363281 80.375 46.363281 C 82.269531 46.363281 83.878906 53.210938 84.476562 62.757812 C 85.601562 57.863281 87.226562 54.789062 89.023438 54.789062 C 90.824219 54.789062 92.449219 57.863281 93.566406 62.757812 C 94.167969 53.210938 95.777344 46.363281 97.671875 46.363281 C 99.023438 46.363281 100.226562 49.84375 101.027344 55.304688 C 101.839844 47.804688 103.558594 42.636719 105.542969 42.636719 C 107.207031 42.636719 108.691406 46.292969 109.601562 51.910156 Z M 58.636719 60.921875 C 58.636719 57 59.417969 53.820312 60.386719 53.820312 C 61.355469 53.820312 62.140625 57 62.140625 60.921875 C 62.140625 64.84375 61.355469 68.023438 60.386719 68.023438 C 59.417969 68.023438 58.636719 64.84375 58.636719 60.921875 Z M 115.898438 60.921875 C 115.898438 57 116.683594 53.820312 117.652344 53.820312 C 118.617188 53.820312 119.402344 57 119.402344 60.921875 C 119.402344 64.84375 118.617188 68.023438 117.652344 68.023438 C 116.683594 68.023438 115.898438 64.84375 115.898438 60.921875 Z M 115.898438 60.921875 " fill-opacity="1" fill-rule="evenodd"/></g></svg>