<?xml version="1.0" encoding="UTF-8" standalone="no"?>
<!-- Created with Inkscape (http://www.inkscape.org/) -->

<svg
   xmlns:dc="http://purl.org/dc/elements/1.1/"
   xmlns:cc="http://creativecommons.org/ns#"
   xmlns:rdf="http://www.w3.org/1999/02/22-rdf-syntax-ns#"
   xmlns:svg="http://www.w3.org/2000/svg"
   xmlns="http://www.w3.org/2000/svg"
   version="1.1"
   width="537.81519"
   height="327.9313"
   id="svg2">
  <defs
     id="defs4">
    <style
       type="text/css"
       id="style2989" />
  </defs>
  <metadata
     id="metadata7">
    <rdf:RDF>
      <cc:Work
         rdf:about="">
        <dc:format>image/svg+xml</dc:format>
        <dc:type
           rdf:resource="http://purl.org/dc/dcmitype/StillImage" />
        <dc:title></dc:title>
      </cc:Work>
    </rdf:RDF>
  </metadata>
  <g
     transform="translate(-99.663836,-368.39654)"
     id="layer1">
    <g
       transform="matrix(3.543307,0,0,3.543307,-8.6965153,43.111388)"
       id="g3034"
       style="fill-rule:evenodd">
      <g
         id="Camada_x0020_1">
        <metadata
           id="CorelCorpID_0Corel-Layer" />
        <g
           id="g3057">
          <polygon
             points="40.7571,91.8027 68.0976,91.8027 68.0976,99.7844 59.7631,99.7844 59.7631,122.098 49.4443,122.098 49.4443,99.7844 40.713,99.7844 "
             id="polygon2993"
             style="fill:none" />
          <polygon
             points="101.413,114.976 88.4484,114.976 88.4484,110.742 101.325,110.742 101.325,103.334 88.4484,103.246 88.4484,98.748 101.325,98.748 101.281,91.8246 77.7326,91.8246 77.7768,121.943 101.413,121.943 "
             id="polygon2995"
             style="fill:none" />
          <polygon
             points="124.961,113.917 124.961,91.8688 114.466,91.957 114.466,121.943 136.338,121.943 136.338,113.917 "
             id="polygon2997"
             style="fill:none" />
          <polygon
             points="172.101,115.02 159.136,115.02 159.136,110.786 172.013,110.786 172.013,103.29 159.136,103.29 159.136,98.7921 172.013,98.7921 171.969,91.8687 148.685,91.8687 148.663,121.987 172.101,121.987 "
             id="polygon2999"
             style="fill:none" />
          <polygon
             points="182.365,132.141 182.365,184.352 30.6698,184.267 30.5817,131.965 "
             id="polygon3001"
             style="fill:none" />
          <path
             d="m 61.9569,160.606 c -4.7454,5.6801 -11.1428,1.9009 -11.4783,-3.1902 -0.3379,-5.1273 6.065,-9.6506 11.4782,-3.9535 l 8.3785,-5.6886 c -10.8987,-14.1238 -28.6169,-5.5848 -30.1012,7.0283 -0.47,3.9937 0.5658,8.9635 4.0317,13.1692 5.6089,6.8061 18.2624,8.7175 25.8932,-1.5442 l -8.2021,-5.821 z"
             id="path3003"
             style="fill:none" />
          <polygon
             points="82.7708,141.732 93.3542,141.732 93.3542,172.248 82.7708,172.248 "
             id="polygon3005"
             style="fill:none" />
          <polygon
             points="106.319,140.762 106.319,172.16 115.844,172.16 115.844,160.253 135.423,173.482 135.423,141.821 126.251,141.821 126.251,153.859 "
             id="polygon3007"
             style="fill:none" />
          <polygon
             points="172.277,165.222 159.313,165.222 159.313,160.947 172.189,160.947 172.189,153.376 159.313,153.376 159.313,148.834 172.189,148.834 172.145,141.842 148.862,141.842 148.84,172.258 172.277,172.258 "
             id="polygon3009"
             style="fill:none" />
          <polygon
             points="59.7631,99.7844 68.0976,99.7844 68.0976,91.8027 40.7571,91.8027 40.713,99.7844 49.4443,99.7844 49.4443,122.098 59.7631,122.098 "
             id="polygon3011"
             style="fill:#000000" />
          <polygon
             points="88.4484,110.742 101.325,110.742 101.325,103.334 88.4484,103.246 88.4484,98.748 101.325,98.748 101.281,91.8246 77.7326,91.8246 77.7768,121.943 101.413,121.943 101.413,114.976 88.4484,114.976 "
             id="polygon3013"
             style="fill:#000000" />
          <polygon
             points="124.961,91.8688 114.466,91.957 114.466,121.943 136.338,121.943 136.338,113.917 124.961,113.917 "
             id="polygon3015"
             style="fill:#000000" />
          <polygon
             points="159.136,110.786 172.013,110.786 172.013,103.29 159.136,103.29 159.136,98.7921 172.013,98.7921 171.969,91.8687 148.685,91.8687 148.663,121.987 172.101,121.987 172.101,115.02 159.136,115.02 "
             id="polygon3017"
             style="fill:#000000" />
          <path
             d="m 182.365,132.141 -151.783,-0.1764 0.0881,52.3024 151.695,0.0852 0,-52.2112 z m -142.13,22.6608 c 1.4843,-12.6131 19.2025,-21.1521 30.1012,-7.0283 l -8.3785,5.6886 c -5.4132,-5.6971 -11.8161,-1.1738 -11.4782,3.9535 0.3355,5.0911 6.7329,8.8703 11.4783,3.1902 l 8.2021,5.821 c -7.6308,10.2617 -20.2843,8.3503 -25.8932,1.5442 -3.4659,-4.2057 -4.5017,-9.1755 -4.0317,-13.1692 z m 42.5367,17.4457 0,-30.5154 10.5834,0 0,30.5154 -10.5834,0 z m 23.548,-0.0882 0,-31.3973 19.932,13.0969 0,-12.0386 9.1722,0 0,31.6619 -19.5792,-13.2292 0,11.9063 -9.525,0 z m 42.5209,0.0987 0.0219,-30.4159 23.2836,0 0.044,6.9918 -12.8764,0 0,4.5423 12.8764,0 0,7.5704 -12.8764,0 0,4.2752 12.9646,0 0,7.0362 -23.4377,0 z"
             id="path3019"
             style="fill:#ee1c23" />
          <path
             d="m 70.3353,147.774 c -10.8987,-14.1238 -28.6169,-5.5848 -30.1012,7.0283 -0.47,3.9937 0.5658,8.9635 4.0317,13.1692 5.6089,6.8061 18.2624,8.7175 25.8932,-1.5442 l -8.2021,-5.821 c -4.7454,5.6801 -11.1428,1.9009 -11.4783,-3.1902 -0.3379,-5.1273 6.065,-9.6506 11.4782,-3.9535 l 8.3785,-5.6886 z"
             id="path3021"
             style="fill:#ffffff" />
          <polygon
             points="82.7708,172.248 93.3542,172.248 93.3542,141.732 82.7708,141.732 "
             id="polygon3023"
             style="fill:#ffffff" />
          <polygon
             points="106.319,172.16 115.844,172.16 115.844,160.253 135.423,173.482 135.423,141.821 126.251,141.821 126.251,153.859 106.319,140.762 "
             id="polygon3025"
             style="fill:#ffffff" />
          <polygon
             points="159.313,160.947 172.189,160.947 172.189,153.376 159.313,153.376 159.313,148.834 172.189,148.834 172.145,141.842 148.862,141.842 148.84,172.258 172.277,172.258 172.277,165.222 159.313,165.222 "
             id="polygon3027"
             style="fill:#ffffff" />
        </g>
      </g>
    </g>
  </g>
</svg>
