<svg xmlns="http://www.w3.org/2000/svg" xmlns:xlink="http://www.w3.org/1999/xlink" width="129" zoomAndPan="magnify" viewBox="0 0 96.75 95.999999" height="128" preserveAspectRatio="xMidYMid meet" version="1.0"><defs><clipPath id="339a872198"><path d="M 0 0.125 L 96.46875 0.125 L 96.46875 95.476562 L 0 95.476562 Z M 0 0.125 " clip-rule="nonzero"/></clipPath><clipPath id="d600947291"><path d="M 7.480469 0.125 L 88.710938 0.125 C 90.695312 0.125 92.597656 0.910156 94 2.316406 C 95.402344 3.71875 96.191406 5.621094 96.191406 7.605469 L 96.191406 87.996094 C 96.191406 89.980469 95.402344 91.882812 94 93.285156 C 92.597656 94.6875 90.695312 95.476562 88.710938 95.476562 L 7.480469 95.476562 C 5.496094 95.476562 3.59375 94.6875 2.191406 93.285156 C 0.789062 91.882812 0 89.980469 0 87.996094 L 0 7.605469 C 0 5.621094 0.789062 3.71875 2.191406 2.316406 C 3.59375 0.910156 5.496094 0.125 7.480469 0.125 Z M 7.480469 0.125 " clip-rule="nonzero"/></clipPath></defs><g clip-path="url(#339a872198)"><g clip-path="url(#d600947291)"><path fill="#ffffff" d="M 0 0.125 L 96.097656 0.125 L 96.097656 95.476562 L 0 95.476562 Z M 0 0.125 " fill-opacity="1" fill-rule="nonzero"/></g></g><path fill="#0064ff" d="M 43.253906 48.316406 C 43.046875 48.230469 42.707031 47.847656 43.273438 46.78125 L 44.589844 44.027344 C 44.628906 43.945312 44.535156 43.839844 44.472656 43.910156 L 43.324219 45.070312 C 42.777344 45.636719 41.851562 47.238281 41.671875 47.535156 L 40.273438 49.847656 C 40.378906 49.84375 40.464844 49.925781 40.46875 50.027344 C 40.46875 50.0625 40.460938 50.097656 40.445312 50.128906 L 39.164062 52.273438 C 38.851562 52.808594 39.414062 53.179688 39.492188 53.058594 C 41.5 49.820312 42.671875 50.078125 42.671875 50.078125 L 43.339844 48.523438 C 43.375 48.445312 43.34375 48.355469 43.265625 48.320312 C 43.261719 48.316406 43.257812 48.316406 43.253906 48.316406 Z M 47.824219 21.261719 C 36.332031 21.261719 27.011719 30.574219 27.011719 42.0625 C 27.007812 46.507812 28.433594 50.839844 31.082031 54.414062 C 31.957031 54.035156 32.441406 53.472656 32.789062 53.042969 L 36.664062 48.089844 C 36.742188 47.984375 36.851562 47.902344 36.972656 47.847656 L 37.554688 47.597656 L 43.925781 39.519531 L 44.851562 38.796875 L 46.75 36.15625 C 46.796875 36.085938 46.859375 36.027344 46.925781 35.976562 L 47.753906 35.375 C 47.960938 35.226562 48.234375 35.226562 48.441406 35.371094 L 49.449219 36.074219 C 49.980469 36.449219 50.414062 36.949219 50.707031 37.53125 L 54.730469 44.601562 C 54.796875 44.734375 54.910156 44.84375 55.046875 44.902344 C 55.835938 45.292969 56.320312 45.363281 57.351562 46.484375 C 57.835938 47.007812 59.949219 49.371094 62.910156 53.042969 C 63.339844 53.632812 63.914062 54.097656 64.582031 54.398438 C 67.222656 50.828125 68.644531 46.503906 68.636719 42.0625 C 68.636719 30.574219 59.320312 21.261719 47.824219 21.261719 Z M 32.625 43.207031 L 31.277344 42.769531 L 30.441406 43.917969 L 30.441406 42.5 L 29.09375 42.0625 L 30.441406 41.625 L 30.441406 40.207031 L 31.277344 41.351562 L 32.625 40.914062 L 31.792969 42.0625 Z M 32.304688 47.847656 L 31.867188 49.195312 L 31.429688 47.847656 L 30.011719 47.847656 L 31.160156 47.011719 L 30.71875 45.664062 L 31.867188 46.5 L 33.015625 45.664062 L 32.578125 47.011719 L 33.722656 47.847656 Z M 32.578125 37.109375 L 33.015625 38.457031 L 31.867188 37.625 L 30.71875 38.457031 L 31.160156 37.109375 L 30.011719 36.277344 L 31.429688 36.277344 L 31.867188 34.929688 L 32.304688 36.277344 L 33.726562 36.277344 Z M 34.855469 34.058594 L 34.019531 32.914062 L 32.671875 33.351562 L 33.503906 32.203125 L 32.671875 31.058594 L 34.019531 31.496094 L 34.855469 30.347656 L 34.855469 31.765625 L 36.203125 32.203125 L 34.855469 32.640625 Z M 38.402344 29.097656 L 37.964844 30.445312 L 37.523438 29.097656 L 36.105469 29.097656 L 37.253906 28.261719 L 36.816406 26.914062 L 37.964844 27.75 L 39.109375 26.914062 L 38.671875 28.265625 L 39.820312 29.097656 Z M 42.871094 26.820312 L 42.039062 27.96875 L 42.039062 26.550781 L 40.6875 26.113281 L 42.039062 25.675781 L 42.039062 24.257812 L 42.871094 25.402344 L 44.21875 24.964844 L 43.386719 26.113281 L 44.21875 27.257812 Z M 48.535156 25.519531 L 48.972656 26.871094 L 47.824219 26.035156 L 46.679688 26.871094 L 47.117188 25.523438 L 45.96875 24.6875 L 47.386719 24.6875 L 47.824219 23.339844 L 48.261719 24.6875 L 49.679688 24.6875 Z M 53.613281 26.550781 L 53.613281 27.96875 L 52.78125 26.820312 L 51.429688 27.257812 L 52.265625 26.113281 L 51.429688 24.964844 L 52.78125 25.402344 L 53.613281 24.257812 L 53.613281 25.675781 L 54.960938 26.113281 Z M 63.023438 40.914062 L 64.375 41.351562 L 65.207031 40.207031 L 65.207031 41.625 L 66.554688 42.0625 L 65.207031 42.5 L 65.207031 43.917969 L 64.375 42.769531 L 63.023438 43.207031 L 63.859375 42.0625 Z M 57.6875 30.445312 L 57.25 29.097656 L 55.832031 29.097656 L 56.976562 28.265625 L 56.539062 26.914062 L 57.6875 27.75 L 58.835938 26.914062 L 58.398438 28.265625 L 59.542969 29.097656 L 58.125 29.097656 Z M 60.796875 34.058594 L 60.796875 32.640625 L 59.445312 32.203125 L 60.796875 31.765625 L 60.796875 30.347656 L 61.628906 31.496094 L 62.980469 31.058594 L 62.144531 32.203125 L 62.980469 33.351562 L 61.628906 32.914062 Z M 63.34375 36.277344 L 63.78125 34.929688 L 64.222656 36.277344 L 65.640625 36.277344 L 64.492188 37.109375 L 64.929688 38.457031 L 63.78125 37.625 L 62.636719 38.457031 L 63.074219 37.109375 L 61.925781 36.277344 Z M 64.222656 47.847656 L 63.78125 49.195312 L 63.34375 47.847656 L 61.925781 47.847656 L 63.074219 47.011719 L 62.636719 45.664062 L 63.78125 46.5 L 64.929688 45.664062 L 64.492188 47.011719 L 65.636719 47.847656 Z M 55.363281 54.082031 C 55.464844 53.9375 55.625 53.539062 55.320312 52.800781 L 54.398438 50.324219 C 54.273438 50.007812 54.546875 49.816406 54.730469 50.027344 C 54.730469 50.027344 56.472656 52.03125 56.921875 52.871094 L 57.78125 54.292969 C 58.519531 54.339844 60.558594 54.398438 62.519531 54.398438 C 62.320312 54.199219 62.140625 53.988281 61.972656 53.765625 C 58.625 49.617188 56.503906 47.3125 56.480469 47.289062 C 55.804688 46.550781 55.488281 46.410156 54.972656 46.171875 C 54.898438 46.140625 54.816406 46.101562 54.730469 46.0625 L 54.730469 46.691406 C 54.738281 46.734375 54.707031 46.773438 54.664062 46.777344 C 54.628906 46.78125 54.597656 46.765625 54.582031 46.730469 L 49.664062 38.089844 L 49.648438 38.0625 C 49.441406 37.65625 49.140625 37.304688 48.769531 37.042969 L 48.289062 36.707031 L 45.941406 42.121094 C 46.21875 42.121094 46.449219 42.347656 46.449219 42.628906 C 46.449219 42.699219 46.433594 42.765625 46.40625 42.832031 L 44.238281 47.847656 L 46.230469 47.847656 C 47 47.847656 47.761719 47.996094 48.472656 48.289062 L 48.996094 48.503906 C 48.996094 48.503906 47.414062 51.757812 47.414062 53.472656 C 47.417969 53.785156 47.460938 54.097656 47.542969 54.394531 L 51.191406 54.394531 L 51.023438 53.367188 C 52.457031 53.6875 53.90625 53.925781 55.363281 54.082031 Z M 27.199219 59.359375 C 27.199219 56.011719 23.644531 54.398438 19.425781 54.398438 C 14.910156 54.398438 10.765625 56.398438 9.246094 59.5 C 8.824219 60.324219 8.609375 61.238281 8.609375 62.167969 C 8.589844 62.96875 8.8125 63.757812 9.246094 64.429688 C 9.898438 65.394531 11.058594 66 12.765625 66 C 14.863281 66 16.523438 64.851562 16.523438 62.851562 C 16.523438 62.851562 16.554688 62.292969 15.902344 62.292969 C 15.375 62.292969 15.234375 62.664062 15.25 62.851562 C 15.328125 64.417969 14.398438 65.671875 12.738281 65.671875 C 10.875 65.671875 10.097656 64.089844 10.097656 62.398438 C 10.097656 58.941406 12.707031 56.644531 15.421875 55.652344 C 16.691406 55.175781 18.039062 54.9375 19.394531 54.953125 C 22.46875 54.953125 24.980469 56.132812 24.980469 59.296875 C 24.980469 61.933594 22.761719 64.183594 20.109375 64.386719 L 20.214844 64.027344 C 20.761719 62.089844 21.425781 59.964844 22.511719 58.398438 C 22.574219 58.304688 22.683594 58.148438 22.808594 57.996094 L 22.652344 57.808594 C 22.421875 57.949219 22.199219 58.105469 21.984375 58.273438 C 16.894531 62.246094 16.742188 73.410156 9.960938 73.410156 C 9.726562 73.410156 9.492188 73.394531 9.261719 73.367188 C 7.847656 73.132812 7.105469 72.1875 7.105469 70.867188 C 7.105469 70.605469 7.195312 70.25 7.195312 70.046875 C 7.207031 69.671875 6.914062 69.359375 6.539062 69.347656 C 6.535156 69.347656 6.53125 69.347656 6.53125 69.347656 L 6.453125 69.347656 C 5.847656 69.347656 5.597656 69.828125 5.582031 70.511719 C 5.539062 72.480469 6.996094 73.628906 9.246094 73.847656 C 9.492188 73.863281 9.742188 73.878906 10.007812 73.878906 C 15.296875 73.878906 18.539062 69.875 19.921875 65.019531 C 20.621094 64.9375 21.3125 64.792969 21.984375 64.585938 C 24.4375 63.902344 27.199219 62.261719 27.199219 59.359375 Z M 77.601562 60.523438 L 75.738281 60.523438 L 75.320312 61.5 L 74.589844 63.144531 L 73.722656 63.144531 L 73.457031 63.703125 L 74.359375 63.703125 L 73.273438 66.105469 C 72.496094 67.796875 71.285156 69.457031 70.589844 69.457031 C 70.433594 69.457031 70.339844 69.394531 70.339844 69.242188 C 70.339844 69.085938 70.386719 68.945312 70.558594 68.511719 C 70.773438 68 71.132812 67.253906 71.394531 66.710938 C 71.78125 65.921875 72.402344 64.695312 72.402344 64.089844 C 72.402344 63.484375 72.015625 63.003906 71.253906 63.003906 C 70.402344 63.003906 69.625 63.515625 68.910156 64.261719 L 69.378906 63.144531 L 67.625 63.144531 L 66.195312 66.402344 C 65.621094 67.550781 64.457031 69.457031 63.726562 69.457031 C 63.574219 69.457031 63.511719 69.363281 63.511719 69.207031 C 63.527344 69.070312 63.5625 68.933594 63.621094 68.804688 C 63.683594 68.664062 64.535156 66.664062 64.535156 66.664062 L 66.085938 63.113281 L 64.195312 63.113281 L 62.6875 66.570312 C 62.222656 67.640625 61.042969 69.457031 60.285156 69.457031 C 60.152344 69.46875 60.03125 69.375 60.019531 69.238281 L 60.019531 69.175781 C 60.019531 68.992188 60.160156 68.648438 60.269531 68.402344 L 61.058594 66.664062 L 62.6875 63.113281 L 60.8125 63.113281 L 60.4375 63.917969 C 60.160156 64.460938 59.695312 65.097656 58.949219 65.097656 C 58.59375 65.097656 58.421875 64.960938 58.34375 64.820312 C 58.234375 63.625 57.476562 62.988281 56.359375 62.988281 C 54.804688 62.988281 53.703125 63.902344 52.972656 65.019531 C 52.496094 65.789062 52.121094 66.621094 51.859375 67.488281 C 51.191406 68.589844 50.492188 69.441406 49.933594 69.441406 C 49.792969 69.441406 49.699219 69.363281 49.699219 69.175781 C 49.699219 68.992188 49.886719 68.574219 49.949219 68.417969 L 51.175781 65.8125 C 51.515625 65.003906 51.75 64.476562 51.75 63.949219 C 51.75 63.390625 51.363281 62.988281 50.726562 62.988281 C 49.839844 62.988281 48.878906 63.5 48.117188 64.339844 C 48.144531 64.207031 48.152344 64.070312 48.148438 63.933594 C 48.148438 63.3125 47.839844 62.988281 47.203125 62.988281 C 46.394531 62.988281 45.558594 63.46875 44.796875 64.335938 L 45.292969 63.128906 L 43.585938 63.128906 L 42.144531 66.386719 C 41.460938 67.921875 40.359375 69.441406 39.738281 69.441406 C 39.597656 69.441406 39.503906 69.363281 39.503906 69.175781 C 39.503906 68.882812 39.832031 68.152344 39.957031 67.859375 L 41.863281 63.53125 C 42.003906 63.207031 41.089844 63.003906 39.925781 63.003906 C 38.730469 63.003906 37.503906 63.59375 36.605469 64.355469 C 35.96875 64.882812 35.503906 65.144531 35.269531 65.144531 C 35.191406 65.160156 35.117188 65.113281 35.101562 65.035156 C 35.097656 65.027344 35.097656 65.015625 35.097656 65.003906 C 35.097656 64.742188 35.734375 63.996094 35.734375 63.421875 C 35.734375 63.160156 35.59375 62.988281 35.238281 62.988281 C 34.554688 62.988281 33.746094 63.640625 33.160156 64.324219 L 33.65625 63.128906 L 31.980469 63.128906 L 30.535156 66.386719 C 29.855469 67.921875 28.722656 69.519531 28.101562 69.519531 C 27.960938 69.519531 27.867188 69.441406 27.867188 69.253906 C 27.867188 68.960938 28.179688 68.246094 28.347656 67.875 L 30.257812 63.53125 C 30.398438 63.207031 29.480469 63.003906 28.316406 63.003906 C 26.59375 63.003906 24.917969 64.167969 24.035156 65.363281 C 23.058594 66.648438 22.390625 68.015625 22.375 69.132812 C 22.359375 70.03125 22.824219 70.589844 23.753906 70.589844 C 24.792969 70.589844 25.632812 69.765625 26.113281 69.144531 C 26.085938 69.269531 26.0625 69.394531 26.050781 69.519531 C 26.050781 70.140625 26.300781 70.589844 27.058594 70.589844 C 27.726562 70.589844 28.613281 70.03125 29.324219 69.144531 L 28.75 70.464844 L 30.566406 70.464844 L 32.351562 66.417969 C 32.941406 65.097656 33.609375 64.417969 33.792969 64.417969 C 33.835938 64.40625 33.878906 64.4375 33.886719 64.480469 C 33.886719 64.484375 33.886719 64.488281 33.886719 64.492188 C 33.886719 64.632812 33.609375 65.007812 33.609375 65.347656 C 33.609375 65.6875 33.792969 65.953125 34.292969 65.953125 C 34.679688 65.953125 35.113281 65.765625 35.503906 65.515625 C 34.585938 66.757812 33.964844 68.0625 33.964844 69.132812 C 33.949219 70.03125 34.414062 70.589844 35.347656 70.589844 C 36.324219 70.589844 37.238281 69.660156 37.734375 69.039062 C 37.71875 69.183594 37.707031 69.328125 37.707031 69.472656 C 37.707031 70.078125 38.046875 70.589844 38.746094 70.589844 C 39.519531 70.589844 40.140625 70.109375 40.917969 69.164062 L 40.34375 70.464844 L 42.203125 70.464844 L 43.910156 66.601562 C 44.65625 64.929688 45.664062 64.027344 46.160156 64.027344 C 46.285156 64.015625 46.398438 64.105469 46.410156 64.230469 L 46.410156 64.277344 C 46.390625 64.464844 46.335938 64.648438 46.253906 64.820312 L 43.804688 70.480469 L 45.714844 70.480469 L 47.453125 66.539062 C 48.195312 64.851562 49.019531 64.027344 49.640625 64.027344 C 49.824219 64.027344 49.902344 64.121094 49.902344 64.324219 C 49.886719 64.539062 49.828125 64.75 49.734375 64.945312 L 48.058594 68.511719 C 47.902344 68.855469 47.808594 69.222656 47.777344 69.597656 C 47.777344 70.140625 48.070312 70.621094 48.910156 70.621094 C 49.996094 70.621094 50.820312 69.796875 51.75 68.574219 L 51.75 68.835938 C 51.828125 69.8125 52.371094 70.667969 53.8125 70.667969 C 55.519531 70.667969 56.902344 69.488281 57.738281 67.613281 C 58.054688 66.953125 58.261719 66.246094 58.34375 65.515625 C 58.53125 65.613281 58.742188 65.65625 58.949219 65.640625 C 59.230469 65.644531 59.511719 65.574219 59.757812 65.441406 L 59.460938 66.078125 C 59.121094 66.789062 58.746094 67.582031 58.453125 68.25 C 58.269531 68.644531 58.15625 69.070312 58.128906 69.503906 C 58.128906 70.171875 58.5 70.652344 59.261719 70.652344 C 60.019531 70.652344 61.0625 69.9375 61.804688 68.929688 L 61.820312 68.929688 C 61.773438 69.140625 61.746094 69.351562 61.742188 69.566406 C 61.742188 70.125 61.914062 70.652344 62.691406 70.652344 C 63.589844 70.652344 64.289062 70 64.972656 69.179688 L 64.398438 70.480469 L 66.273438 70.480469 L 67.78125 67.070312 C 68.632812 65.144531 69.488281 63.984375 70.277344 63.984375 C 70.414062 63.976562 70.53125 64.078125 70.542969 64.214844 L 70.542969 64.261719 C 70.542969 64.585938 70.078125 65.472656 69.65625 66.355469 C 69.269531 67.160156 68.976562 67.78125 68.773438 68.261719 C 68.585938 68.667969 68.476562 69.105469 68.449219 69.550781 C 68.449219 70.140625 68.773438 70.589844 69.503906 70.589844 C 70.589844 70.589844 71.691406 69.535156 72.28125 68.742188 C 72.148438 69.121094 72.074219 69.519531 72.0625 69.921875 C 72.0625 71.007812 72.714844 71.550781 73.628906 71.550781 C 74.238281 71.546875 74.832031 71.351562 75.320312 70.992188 C 76.035156 70.496094 76.609375 69.753906 77.089844 69.070312 L 76.765625 68.757812 C 76.316406 69.394531 75.816406 70 75.304688 70.371094 C 75.035156 70.601562 74.695312 70.730469 74.34375 70.746094 C 73.957031 70.746094 73.707031 70.542969 73.707031 70.046875 C 73.707031 69.550781 73.941406 68.882812 74.296875 67.984375 C 74.3125 67.96875 74.824219 66.820312 75.304688 65.71875 C 75.710938 64.789062 76.113281 63.890625 76.191406 63.703125 L 77.417969 63.703125 L 77.664062 63.144531 L 76.453125 63.144531 Z M 24.671875 69.472656 C 24.40625 69.472656 24.21875 69.378906 24.21875 69.039062 C 24.234375 68.125 24.996094 66.496094 25.941406 65.191406 C 26.609375 64.292969 27.480469 63.625 28.410156 63.625 L 27.230469 66.261719 C 26.347656 68.246094 25.382812 69.472656 24.671875 69.472656 Z M 36.277344 69.472656 C 36.015625 69.472656 35.828125 69.378906 35.8125 69.039062 C 35.828125 68.125 36.589844 66.496094 37.535156 65.191406 C 38.203125 64.292969 39.070312 63.625 40.003906 63.625 L 38.824219 66.261719 C 37.921875 68.292969 37.007812 69.472656 36.277344 69.472656 Z M 56.886719 64.339844 C 56.839844 65.347656 55.953125 67.78125 54.914062 69.238281 C 54.496094 69.828125 54.140625 70 53.828125 70 C 53.394531 70 53.269531 69.644531 53.332031 69.117188 C 53.425781 68.199219 54.183594 66.058594 55.242188 64.585938 C 55.722656 63.917969 56.046875 63.640625 56.421875 63.640625 C 56.792969 63.640625 56.902344 63.949219 56.886719 64.339844 Z M 85.847656 63.144531 L 87.558594 59.199219 L 85.535156 59.199219 L 83.824219 63.144531 L 79.527344 63.144531 L 78.808594 64.796875 L 83.109375 64.796875 L 81.398438 68.742188 L 83.421875 68.742188 L 85.132812 64.796875 L 89.429688 64.796875 L 90.148438 63.144531 Z M 85.847656 63.144531 " fill-opacity="1" fill-rule="nonzero"/></svg>